<!DOCTYPE svg PUBLIC "-//W3C//DTD SVG 20010904//EN" "http://www.w3.org/TR/2001/REC-SVG-20010904/DTD/svg10.dtd">
<svg version="1.0" xmlns="http://www.w3.org/2000/svg" width="1600px" height="375px" viewBox="0 0 16000 3750" preserveAspectRatio="xMidYMid meet">
<g id="layer101" fill="#5e87cd" stroke="none">
 <path d="M11287 806 c-35 -13 -32 -40 5 -44 27 -3 43 -26 32 -44 -4 -6 -22 -8 -40 -5 -37 6 -46 -10 -19 -33 11 -9 12 -17 5 -30 -8 -15 -18 -18 -45 -13 -26 4 -35 2 -35 -8 0 -8 -5 -21 -10 -29 -9 -13 -11 -13 -20 0 -25 38 2 133 40 145 26 8 25 21 -1 35 -29 16 -53 5 -46 -22 7 -26 -17 -58 -43 -58 -10 0 -23 -7 -30 -15 -18 -21 -52 -20 -48 3 3 12 12 16 32 14 19 -2 27 1 24 10 -7 20 -92 23 -108 3 -18 -21 -35 -19 -53 8 -13 19 -18 20 -36 10 -30 -18 -49 -16 -61 7 -12 22 -35 26 -46 9 -3 -6 -1 -16 5 -22 28 -28 6 -63 -47 -73 -31 -6 -32 -6 -32 30 0 30 5 38 25 46 31 12 31 21 2 48 -29 27 -43 28 -57 2 -6 -11 -20 -20 -30 -20 -16 0 -20 -7 -20 -36 0 -20 -5 -54 -11 -74 -11 -36 -14 -38 -44 -33 -24 4 -49 -2 -90 -22 l-56 -28 -20 21 c-23 26 -75 24 -94 -2 -7 -9 -18 -16 -25 -16 -7 0 -21 -11 -32 -25 -23 -29 -40 -32 -59 -9 -11 13 -25 15 -76 10 -60 -6 -62 -6 -75 20 -20 41 -44 52 -65 31 -17 -17 -17 -19 0 -48 9 -17 17 -37 17 -44 0 -18 -28 -27 -50 -15 -10 6 -27 10 -36 10 -10 0 -28 10 -41 22 -18 17 -26 19 -35 10 -16 -16 -28 -15 -28 1 0 22 -58 70 -85 72 -33 1 -53 21 -37 37 22 22 12 31 -29 24 -33 -5 -44 -3 -55 11 -10 14 -15 15 -25 6 -16 -16 11 -48 47 -57 27 -7 31 -27 9 -46 -12 -10 -20 -8 -41 9 -47 37 -70 20 -43 -31 10 -19 9 -20 -14 -14 -18 4 -27 1 -31 -10 -4 -11 1 -18 14 -21 11 -3 20 -12 20 -20 0 -11 -6 -14 -22 -9 -13 3 -29 6 -35 6 -7 0 -13 10 -13 23 0 34 -28 67 -57 67 -22 0 -25 -4 -21 -25 7 -33 0 -36 -53 -27 -36 6 -44 12 -44 29 0 12 -4 25 -8 29 -4 4 -7 -4 -7 -18 0 -14 -7 -28 -15 -32 -8 -3 -15 -14 -15 -25 0 -10 -6 -21 -14 -24 -8 -3 -16 -16 -18 -29 -4 -30 -32 -30 -36 0 -3 16 2 22 16 22 23 0 34 30 20 54 -19 34 -48 12 -48 -36 0 -14 -5 -18 -16 -14 -9 3 -17 6 -20 6 -2 0 1 12 6 26 18 45 12 74 -16 84 -32 12 -44 6 -44 -24 0 -29 -45 -53 -66 -35 -7 6 -18 8 -24 4 -14 -9 -12 -33 4 -42 18 -10 3 -53 -18 -53 -15 0 -32 58 -27 93 1 9 -5 20 -13 23 -9 3 -16 17 -16 30 0 25 -33 54 -62 54 -14 0 -16 -6 -11 -32 3 -18 11 -44 18 -58 16 -32 6 -59 -33 -87 l-31 -23 -3 58 c-3 50 -5 57 -23 54 -11 -1 -44 -5 -73 -9 -37 -4 -56 -11 -63 -24 -15 -28 -27 -23 -31 14 -3 29 -6 32 -34 29 -25 -2 -33 2 -37 18 -10 38 -41 23 -66 -31 -23 -51 -23 -51 -62 -46 -21 3 -42 1 -45 -4 -11 -19 -20 -8 -16 21 2 17 10 30 18 30 7 0 16 11 20 24 4 17 11 22 24 19 23 -6 62 15 57 30 -2 7 3 17 11 23 8 6 12 16 8 22 -11 19 -24 14 -28 -10 -2 -16 -11 -24 -28 -26 -14 -2 -29 -8 -34 -13 -6 -5 -20 -9 -33 -9 -15 0 -27 -8 -32 -24 -8 -18 -19 -24 -58 -29 -26 -3 -55 -8 -64 -12 -10 -4 -24 1 -35 13 -46 47 -93 27 -58 -25 19 -29 11 -42 -16 -25 -11 7 -27 12 -35 12 -10 0 -15 10 -15 31 0 26 -3 30 -17 24 -10 -4 -25 -7 -33 -7 -8 0 -28 -5 -44 -11 -23 -9 -30 -8 -38 6 -5 9 -14 17 -19 17 -6 0 -1 -16 11 -35 27 -43 20 -65 -18 -65 -16 0 -35 -7 -42 -15 -7 -8 -24 -15 -37 -15 -20 0 -24 4 -18 18 20 47 18 61 -11 67 -16 4 -39 11 -52 16 -31 12 -32 12 -32 -15 0 -32 -10 -38 -73 -42 -42 -3 -55 0 -74 18 -13 12 -23 30 -23 40 0 10 -4 18 -9 18 -14 0 -29 -23 -43 -68 -14 -45 -48 -61 -48 -23 0 18 -65 79 -74 70 -2 -2 -1 -28 1 -56 5 -44 9 -53 25 -53 16 0 17 -3 8 -20 -14 -26 -50 -27 -50 0 0 27 -24 37 -98 42 l-64 4 6 -27 c3 -16 1 -31 -4 -34 -16 -10 -50 5 -50 21 0 8 -7 14 -15 14 -17 0 -20 -16 -5 -25 13 -8 3 -25 -13 -25 -7 0 -18 4 -26 9 -11 7 -10 17 9 54 19 38 27 45 49 44 16 -1 26 3 26 12 0 10 -15 15 -53 17 -29 1 -60 8 -67 14 -19 16 -45 5 -45 -18 0 -11 -7 -25 -15 -32 -11 -9 -13 -16 -5 -24 7 -7 20 -3 41 13 25 19 33 21 40 10 13 -21 12 -24 -21 -59 -29 -31 -31 -32 -55 -16 -35 23 -61 20 -112 -14 -37 -25 -50 -29 -82 -24 -25 4 -41 2 -46 -5 -9 -15 -35 4 -35 25 0 8 -11 19 -25 24 -14 5 -31 25 -39 45 -19 44 -46 47 -46 5 0 -62 -37 -26 -42 40 -3 47 -21 58 -26 16 -3 -25 -72 -96 -94 -96 -9 0 -9 3 -1 11 7 7 9 24 6 39 -3 19 0 29 11 33 9 4 16 13 16 21 0 11 -8 13 -35 9 -24 -4 -43 0 -61 12 -14 9 -27 15 -29 13 -2 -2 -5 -29 -8 -61 -5 -67 -9 -74 -35 -55 -12 8 -38 12 -66 10 -44 -4 -46 -5 -46 -36 0 -39 -30 -72 -48 -54 -7 7 -12 20 -12 29 0 32 -12 49 -35 49 -13 0 -27 -5 -30 -10 -3 -6 -13 -10 -22 -10 -11 0 -14 7 -10 26 3 19 -2 29 -20 41 -22 15 -25 14 -48 -7 -14 -13 -25 -20 -25 -15 0 4 -8 1 -19 -9 -10 -9 -25 -14 -34 -11 -9 4 -21 -2 -30 -15 -12 -17 -19 -20 -34 -12 -10 6 -31 8 -46 5 -17 -3 -34 0 -45 10 -9 8 -33 17 -52 19 -27 2 -36 8 -38 26 -4 26 -20 29 -29 5 -4 -10 -10 -20 -13 -23 -4 -3 -11 -16 -15 -28 -6 -21 -5 -23 15 -17 22 7 23 5 17 -33 -5 -30 -3 -41 8 -46 23 -8 18 -26 -8 -26 -40 0 -64 25 -59 60 3 24 -1 35 -17 46 -16 11 -19 22 -15 40 8 33 -15 32 -47 -2 -16 -18 -20 -28 -11 -31 6 -3 12 -18 12 -34 0 -17 6 -32 15 -35 16 -7 21 -34 6 -34 -10 0 -28 29 -50 78 -23 49 -63 34 -96 -33 -15 -34 -45 -40 -45 -9 0 8 -8 14 -17 14 -9 0 -30 12 -45 27 -23 22 -32 25 -46 17 -9 -6 -18 -21 -20 -33 -4 -23 -18 -27 -42 -11 -12 8 -9 16 23 46 51 48 46 69 -15 70 -61 2 -88 -16 -71 -45 16 -25 17 -57 3 -66 -7 -4 -5 -14 5 -28 22 -31 19 -49 -7 -45 -17 2 -22 10 -23 33 0 34 -26 45 -53 22 -15 -12 -22 -12 -50 -1 -18 8 -38 26 -44 42 -7 15 -20 38 -30 51 -10 13 -16 32 -13 42 7 22 -14 36 -26 18 -5 -8 -9 -24 -9 -36 0 -35 -34 -25 -41 11 -7 32 -35 43 -58 22 -28 -25 -27 -29 11 -44 l32 -12 -23 -24 c-13 -14 -20 -29 -16 -35 9 -16 57 -13 81 4 23 15 36 11 28 -9 -3 -7 2 -19 11 -26 27 -22 16 -30 -44 -30 -75 0 -121 16 -121 41 0 29 -30 36 -49 11 -12 -16 -20 -19 -31 -12 -27 17 -49 11 -56 -15 -8 -31 -20 -32 -48 -3 -12 13 -31 28 -42 34 -18 11 -17 13 13 38 20 17 30 33 26 42 -3 8 3 24 12 34 17 18 8 29 -9 13 -5 -5 -28 -8 -54 -8 -50 0 -62 -14 -36 -40 16 -16 16 -18 -9 -38 -14 -12 -28 -32 -32 -44 -9 -33 -56 -33 -52 -1 3 34 -37 37 -59 4 -21 -33 -78 -37 -94 -6 -17 33 -48 23 -100 -31 -46 -48 -70 -56 -70 -24 0 22 -34 75 -48 75 -7 0 -18 -14 -24 -30 -13 -39 -62 -67 -84 -49 -9 8 -13 21 -10 34 5 20 1 23 -36 29 -46 7 -68 -8 -68 -46 0 -12 -7 -18 -23 -18 -13 0 -28 -5 -34 -11 -17 -17 -24 5 -11 39 7 17 9 34 5 38 -12 12 -102 -23 -98 -38 31 -115 31 -108 5 -114 -18 -5 -29 0 -42 17 -16 19 -27 22 -76 20 -51 -1 -61 2 -82 24 -26 28 -45 25 -68 -10 -29 -43 -86 -42 -178 6 -34 17 -51 0 -45 -48 8 -76 -39 -51 -82 45 -12 25 -15 26 -42 11 -16 -8 -26 -5 -55 20 -34 31 -47 32 -101 15 -16 -4 -17 -38 -3 -65 17 -30 -24 -25 -44 6 -16 25 -46 34 -46 15 0 -5 -18 -19 -41 -31 l-41 -20 -22 20 c-12 12 -28 21 -34 21 -7 0 -21 6 -32 12 -17 11 -22 10 -35 -9 -13 -19 -19 -21 -40 -11 -28 13 -30 19 -13 36 18 18 0 31 -63 44 -63 13 -89 7 -89 -20 0 -34 -22 -43 -76 -32 -27 6 -69 13 -94 17 -25 3 -51 10 -58 16 -9 7 -16 7 -24 -1 -7 -7 -21 -12 -31 -12 -17 0 -19 6 -15 53 3 58 -10 74 -30 33 -7 -14 -21 -26 -31 -26 -30 0 -45 -25 -29 -49 7 -11 10 -23 6 -26 -10 -10 -56 17 -61 36 -4 15 -15 19 -56 19 l-50 0 6 30 c5 26 3 30 -16 30 -18 0 -21 -6 -21 -45 l0 -45 -40 0 c-29 0 -42 -5 -50 -21 -16 -28 -36 -18 -33 17 2 19 -5 38 -23 58 l-25 28 -23 -21 c-12 -11 -32 -21 -43 -21 -11 0 -26 -7 -33 -15 -19 -23 -31 -18 -28 13 2 28 -35 82 -57 82 -15 0 -45 -33 -45 -49 0 -6 10 -16 23 -21 22 -9 22 -9 -3 -9 -14 0 -34 6 -44 14 -11 8 -29 12 -43 9 -16 -5 -25 -1 -30 12 -4 10 -25 36 -47 56 l-40 38 -33 -16 c-19 -8 -37 -22 -40 -31 -3 -8 -13 -13 -24 -10 -10 3 -23 -1 -30 -9 -6 -8 -23 -14 -38 -14 -15 0 -36 -7 -47 -15 -19 -13 -23 -12 -43 15 -28 39 -71 42 -71 5 0 -19 -5 -25 -23 -25 -27 0 -47 -17 -47 -41 0 -25 -16 -32 -40 -19 -14 7 -20 21 -20 44 0 19 -6 39 -14 46 -8 6 -16 21 -18 33 -2 14 -14 25 -33 30 -16 5 -39 14 -49 19 -16 8 -23 5 -39 -16 -10 -14 -28 -26 -38 -26 -11 0 -17 -5 -14 -10 3 -6 -3 -22 -14 -36 -12 -15 -21 -35 -21 -45 0 -24 -12 -24 -35 1 -27 30 -53 26 -47 -7 4 -23 2 -25 -14 -18 -10 5 -36 10 -57 13 -34 4 -37 2 -37 -21 0 -18 -7 -27 -25 -31 -34 -9 -48 1 -42 31 4 22 2 23 -24 18 -26 -6 -29 -4 -29 18 0 28 -23 57 -45 57 -9 0 -15 -16 -18 -47 -3 -46 -3 -45 -5 12 -2 66 -15 99 -26 70 -3 -9 -6 -26 -6 -38 0 -18 2 -19 10 -7 12 19 12 -52 0 -90 -8 -25 -8 -25 -10 5 -1 26 -3 27 -10 10 -5 -11 -9 -100 -9 -198 l-1 -177 8000 0 8000 0 0 209 c0 115 -3 216 -6 225 -9 23 -22 20 -27 -6 -5 -24 -1 20 8 87 5 41 1 39 -9 -5 -4 -19 -12 -26 -33 -28 -15 -1 -32 -7 -37 -12 -17 -17 -37 -11 -79 26 -36 30 -47 35 -77 30 -20 -3 -44 -16 -57 -31 -12 -14 -30 -25 -41 -25 -10 0 -23 -5 -30 -12 -9 -9 -16 -8 -29 4 -10 8 -30 18 -45 22 -17 4 -29 16 -36 34 -7 21 -19 31 -42 35 -37 8 -80 -16 -80 -44 0 -15 -7 -19 -35 -19 -38 0 -44 13 -19 41 21 23 11 49 -17 49 -13 0 -30 7 -40 16 -25 22 -48 11 -55 -26 -8 -39 -49 -53 -73 -24 -25 30 -93 29 -165 -4 -56 -25 -60 -25 -70 -8 -6 10 -28 36 -49 57 -34 36 -41 39 -72 33 -22 -4 -41 -2 -50 6 -20 16 -48 -6 -42 -32 7 -25 -10 -23 -18 2 -9 28 -55 38 -67 15 -31 -54 -74 -69 -116 -39 -20 13 -28 14 -54 3 -34 -14 -48 -3 -48 39 0 15 -6 22 -20 22 -11 0 -27 11 -36 25 -19 28 -39 32 -48 9 -11 -29 -6 -61 14 -87 25 -31 25 -34 0 -47 -28 -15 -70 -2 -70 22 0 11 -5 29 -12 41 -7 12 -11 32 -9 45 2 15 -3 22 -14 22 -11 0 -15 -6 -10 -19 4 -13 -4 -29 -25 -50 -36 -35 -45 -38 -54 -15 -10 26 -7 44 7 44 8 0 22 9 32 20 16 18 16 20 1 26 -24 9 -46 -3 -46 -26 0 -13 -7 -20 -20 -20 -12 0 -28 -13 -40 -32 l-20 -33 0 36 c0 36 -23 104 -37 112 -5 2 -25 7 -45 11 -35 6 -38 5 -38 -16 0 -29 -66 -88 -98 -88 -25 0 -26 7 -8 51 6 13 -1 18 -30 23 -47 9 -63 -4 -44 -39 18 -34 4 -47 -55 -49 -51 -3 -71 -21 -77 -71 -1 -16 -9 -30 -16 -33 -9 -3 -11 3 -6 21 4 17 -2 40 -16 69 -13 24 -26 49 -29 57 -14 29 -32 22 -49 -17 -25 -60 -94 -103 -126 -79 -17 13 -16 15 20 37 29 17 34 25 22 27 -9 3 -26 -1 -37 -6 -11 -6 -31 -11 -44 -11 -14 0 -30 -7 -37 -15 -16 -19 -30 -19 -30 -1 0 24 -21 30 -38 12 -16 -16 -15 -18 8 -36 23 -17 24 -19 6 -26 -26 -10 -50 8 -54 40 -3 22 -6 25 -18 15 -11 -9 -19 -8 -39 5 -27 18 -61 21 -70 6 -3 -5 -19 -10 -36 -10 -24 0 -29 -4 -29 -25 0 -26 3 -27 83 -40 28 -4 37 -11 37 -26 0 -17 -3 -18 -20 -7 -16 10 -24 10 -40 0 -11 -6 -26 -12 -34 -12 -7 0 -22 -12 -31 -27 l-18 -26 -18 24 c-10 13 -28 25 -41 26 -13 1 -44 5 -70 9 -32 4 -53 3 -62 -5 -8 -7 -17 -8 -20 -3 -7 12 4 22 25 22 34 0 40 92 7 98 -13 2 -18 -3 -18 -18 0 -20 -4 -22 -37 -16 -21 4 -46 9 -56 12 -22 7 -34 -21 -17 -41 10 -13 9 -19 -6 -38 -10 -12 -20 -23 -21 -25 0 -2 -12 4 -26 13 -17 11 -23 22 -20 35 3 11 0 20 -6 20 -6 0 -11 -9 -11 -20 0 -23 -9 -25 -45 -8 -28 13 -32 26 -10 34 17 7 20 50 4 59 -19 12 -60 -5 -69 -30 -7 -18 -17 -25 -35 -25 -31 0 -81 -24 -87 -42 -6 -16 -68 9 -68 28 0 19 17 26 38 15 23 -12 42 3 42 34 0 45 -47 62 -52 19 -3 -25 -7 -27 -53 -27 -27 -1 -60 5 -72 11 -15 9 -29 9 -49 2 -29 -11 -35 -9 -91 43 -27 25 -37 29 -69 24 -44 -7 -82 -40 -86 -75 -4 -32 -39 -36 -115 -16 -53 15 -53 15 -53 55 0 33 -3 40 -17 37 -10 -2 -25 -19 -34 -38 -12 -25 -23 -35 -40 -35 -20 0 -24 -4 -21 -27 3 -35 -11 -36 -37 -2 -45 58 -36 89 27 89 26 0 37 4 37 15 0 18 -41 26 -59 11 -8 -6 -21 -9 -30 -5 -11 4 -19 -2 -26 -21 -12 -31 -44 -31 -46 0 -1 11 -2 25 -3 31 -1 6 -12 16 -26 22 -18 8 -25 19 -25 39 0 20 -10 36 -33 54 -27 21 -36 23 -60 15z"/>
 </g>
<g id="layer102" fill="#6c96d9" stroke="none">
 <path d="M10274 1775 c-8 -31 -17 -32 -38 -2 -15 22 -16 22 -31 3 -13 -17 -13 -23 -2 -40 17 -26 10 -96 -9 -96 -7 0 -16 5 -19 10 -4 6 -28 7 -61 4 l-54 -7 6 31 c5 24 2 32 -14 41 -17 9 -30 7 -66 -11 -25 -12 -48 -30 -52 -40 -3 -10 -12 -18 -21 -18 -11 0 -14 6 -9 24 5 22 3 25 -21 23 -20 -2 -28 3 -31 18 -2 11 -8 24 -13 29 -12 13 -39 -12 -39 -36 0 -17 -3 -18 -15 -8 -8 7 -38 14 -65 15 -39 2 -50 0 -50 -12 0 -8 8 -17 18 -20 9 -2 25 -15 35 -29 17 -23 17 -24 -2 -24 -11 0 -23 5 -26 10 -10 16 -35 11 -36 -7 0 -12 -4 -9 -13 9 -14 32 -44 57 -67 58 -15 0 -89 -76 -89 -91 0 -4 -10 -9 -22 -11 -17 -2 -24 -11 -28 -33 -4 -24 -11 -31 -33 -33 -21 -3 -29 2 -37 23 -11 29 -6 45 14 45 17 0 41 28 32 37 -4 4 -16 2 -27 -5 -16 -10 -24 -10 -35 -1 -17 14 -44 5 -44 -16 0 -25 -18 -17 -35 15 -20 39 -38 38 -57 -4 -14 -28 -23 -35 -55 -39 -26 -3 -48 1 -71 14 -45 26 -55 24 -48 -7 4 -15 2 -32 -5 -40 -13 -16 -75 -19 -84 -4 -9 14 -38 12 -60 -4 -17 -12 -17 -16 -6 -30 23 -28 9 -26 -54 8 -41 21 -65 41 -77 64 -9 19 -19 36 -22 39 -6 6 -41 -7 -76 -28 -8 -5 -26 -15 -40 -21 -14 -7 -34 -23 -46 -36 -16 -20 -26 -23 -52 -18 -29 7 -31 10 -29 44 l2 37 -49 3 c-38 2 -56 -2 -77 -17 -30 -23 -73 -27 -113 -11 -20 7 -26 16 -26 40 0 30 -13 37 -38 21 -8 -4 -13 -17 -12 -27 4 -39 0 -46 -21 -41 -12 3 -31 2 -43 -3 -30 -11 -50 3 -43 30 9 33 -16 35 -70 3 -46 -27 -54 -28 -180 -29 -125 0 -134 -1 -157 -23 -30 -28 -53 -22 -58 15 -4 39 -27 42 -34 5 -7 -36 -19 -39 -34 -12 -14 27 -14 29 20 46 33 17 39 42 14 52 -10 4 -22 -1 -30 -12 -7 -10 -24 -19 -38 -20 -13 -2 -33 -6 -44 -9 -14 -5 -21 -1 -25 15 -5 20 -6 20 -35 4 -27 -17 -31 -17 -53 -1 -31 21 -42 20 -29 -3 17 -33 11 -56 -24 -90 l-35 -34 -14 35 c-12 28 -22 37 -51 42 -20 4 -36 12 -36 17 0 6 -13 -2 -30 -18 -16 -15 -30 -34 -30 -40 0 -19 -17 -16 -42 9 l-22 22 -14 -22 c-18 -27 -32 -28 -32 -3 0 10 -7 25 -16 32 -14 12 -19 10 -39 -15 -22 -28 -23 -28 -54 -11 -18 9 -35 23 -38 31 -7 20 -36 17 -50 -5 -8 -12 -19 -17 -32 -14 -13 3 -25 -3 -36 -21 -14 -21 -20 -24 -31 -15 -8 6 -14 17 -14 25 0 20 -22 64 -32 64 -5 0 -11 -14 -15 -31 -4 -21 -17 -38 -39 -51 -19 -11 -34 -24 -34 -29 0 -5 -6 -9 -12 -9 -14 0 -48 54 -48 75 0 11 -15 13 -67 10 -73 -5 -86 -15 -77 -57 6 -31 -14 -39 -35 -15 -6 8 -25 14 -42 15 -17 0 -43 4 -59 7 -21 5 -41 0 -72 -18 -42 -25 -90 -30 -116 -13 -7 4 -16 5 -19 2 -4 -3 -16 0 -29 8 -18 12 -28 13 -53 3 -37 -14 -39 -29 -8 -50 12 -8 18 -19 14 -23 -5 -5 -18 3 -30 18 -12 15 -35 30 -51 34 -27 7 -29 6 -22 -20 5 -19 0 -34 -16 -56 -28 -38 -41 -38 -33 0 10 45 -41 115 -77 106 -10 -2 -21 0 -24 5 -10 16 -50 10 -69 -11 -15 -17 -16 -24 -7 -46 16 -34 15 -44 -3 -44 -9 0 -29 -7 -45 -15 -24 -13 -33 -13 -50 -3 -16 10 -24 10 -39 1 -17 -11 -21 -9 -26 8 -4 11 -4 31 -1 44 8 31 -11 43 -29 19 -13 -18 -16 -18 -42 -4 -21 12 -28 24 -29 45 -1 65 -4 85 -14 85 -19 0 -32 -52 -20 -76 7 -12 9 -31 5 -43 -5 -18 -2 -21 22 -21 16 0 37 -6 47 -13 16 -11 17 -17 6 -36 -8 -16 -17 -20 -28 -15 -9 3 -28 9 -42 12 -40 8 -49 20 -43 58 l6 36 -49 -7 c-74 -11 -87 -21 -81 -60 5 -30 3 -33 -31 -43 -78 -24 -79 -24 -96 3 -21 32 -41 32 -62 0 -11 -16 -26 -25 -43 -25 -15 0 -32 -5 -38 -11 -21 -21 -32 1 -26 56 6 61 -8 77 -51 57 -14 -6 -28 -6 -39 -1 -11 6 -23 5 -37 -3 -16 -10 -24 -10 -40 -1 -16 11 -25 9 -57 -13 -21 -14 -42 -32 -46 -40 -4 -8 -17 -14 -27 -14 -11 0 -24 -9 -30 -20 -16 -30 -29 -24 -50 24 -10 24 -32 55 -49 67 -18 13 -31 32 -31 44 0 48 -38 36 -64 -20 -30 -63 -68 -34 -41 32 8 19 15 37 15 39 0 12 -40 1 -59 -15 -21 -18 -26 -18 -63 -5 -22 8 -49 14 -59 14 -10 0 -23 9 -29 20 -12 23 -50 27 -50 6 0 -8 -8 -15 -17 -16 -69 -3 -132 -9 -155 -15 -24 -6 -28 -4 -28 13 0 24 -21 43 -67 58 -44 15 -65 8 -61 -20 2 -16 11 -22 36 -24 39 -4 44 -32 10 -56 -31 -22 -58 -20 -58 4 0 29 -43 54 -69 41 -27 -15 -73 -14 -96 3 -11 7 -36 16 -57 20 -22 4 -42 16 -52 31 -9 14 -21 25 -27 25 -6 0 -19 10 -29 23 -20 24 -18 25 -35 -29 -4 -14 -14 -15 -56 -10 l-51 7 6 -35 c8 -41 2 -43 -39 -16 -16 11 -39 20 -51 20 -11 0 -25 5 -30 10 -13 13 -44 2 -44 -16 0 -22 -34 -83 -46 -84 -19 0 -23 52 -7 77 12 19 13 26 3 38 -16 20 -35 19 -55 -2 -14 -14 -18 -14 -26 -2 -5 8 -9 17 -9 22 0 15 -19 6 -25 -13 -4 -12 -15 -20 -30 -20 -25 0 -65 -55 -65 -90 0 -10 -10 -22 -22 -26 -17 -5 -28 0 -48 23 -14 16 -40 38 -58 49 l-32 18 -32 -38 -31 -38 -17 23 c-15 19 -26 22 -70 20 -66 -2 -72 -6 -68 -44 3 -32 3 -32 -40 -29 -37 3 -44 0 -49 -17 -8 -31 -56 -29 -71 3 -9 19 -8 27 4 36 19 16 18 49 -2 57 -9 3 -29 -1 -44 -11 -16 -9 -37 -16 -49 -16 -17 0 -20 -4 -15 -29 4 -16 0 -40 -9 -58 -16 -30 -81 -72 -93 -61 -11 12 6 59 31 84 29 29 30 37 10 54 -12 10 -22 9 -49 -4 -42 -20 -80 -21 -96 -1 -7 8 -17 12 -22 9 -5 -3 -3 -13 6 -23 22 -24 20 -36 -7 -61 -56 -54 -147 -62 -147 -14 0 22 -4 24 -54 24 -29 0 -67 3 -83 6 -25 5 -31 2 -36 -15 -3 -15 1 -25 14 -31 10 -6 19 -18 19 -27 0 -12 -6 -14 -28 -9 -57 15 -67 12 -67 -14 0 -23 3 -25 35 -22 l35 4 -23 -22 c-16 -15 -21 -28 -16 -42 5 -18 4 -18 -16 -8 -11 6 -24 18 -27 25 -7 19 -71 31 -86 16 -6 -6 -17 -11 -25 -11 -7 0 -41 -23 -75 -50 -51 -41 -67 -49 -89 -44 -15 3 -35 1 -44 -4 -16 -9 -49 -2 -99 20 -22 10 -49 10 -150 2 -63 -5 -73 -3 -89 15 -25 28 -44 26 -52 -4 -9 -38 -24 -30 -25 15 -1 22 -2 46 -3 53 -1 6 11 13 26 15 16 2 28 7 28 11 0 15 -25 31 -47 31 -17 0 -23 -6 -23 -23 0 -25 -70 -107 -93 -107 -8 0 -25 8 -38 19 -19 15 -22 26 -20 71 l2 53 -46 -5 c-62 -8 -85 0 -85 26 0 15 -10 25 -32 34 -30 11 -34 10 -47 -8 -25 -37 -48 -25 -55 29 -4 28 -12 51 -20 54 -18 7 -40 -18 -41 -46 -1 -12 -7 -57 -15 -100 -12 -70 -15 -78 -34 -75 -18 3 -22 11 -24 53 -2 30 -9 53 -18 58 -8 4 -14 20 -14 35 0 32 -25 72 -45 72 -8 0 -19 -9 -25 -20 -12 -22 1 -56 28 -76 13 -9 13 -12 1 -16 -20 -8 -59 26 -59 50 0 36 -11 52 -36 52 -23 0 -24 -2 -25 -92 -1 -68 -4 -83 -9 -58 l-7 35 -2 -44 c-1 -56 -6 -50 -15 17 -4 32 -3 51 2 48 11 -7 22 50 22 116 0 38 3 46 15 42 20 -8 20 22 1 42 -13 12 -15 6 -21 -44 -4 -31 -10 -68 -14 -82 -8 -23 -9 -21 -19 20 -12 56 -15 -1343 -3 -1405 5 -22 9 -35 10 -30 1 6 6 3 11 -5 8 -12 10 -10 10 10 0 14 5 32 10 40 7 11 10 5 10 -22 0 -35 2 -38 29 -38 19 0 34 8 44 24 l16 24 62 -19 c79 -25 105 -24 154 6 33 20 42 22 55 11 21 -17 91 -38 137 -41 53 -3 55 -4 47 -17 -5 -8 4 -9 34 -5 22 4 64 2 91 -4 28 -6 57 -9 64 -6 6 2 -23 10 -65 17 -43 7 -78 14 -78 16 0 1 4 14 10 29 9 24 13 25 57 21 27 -3 56 -5 66 -5 10 -1 33 -17 53 -36 33 -33 74 -47 74 -25 0 6 -4 10 -10 10 -5 0 -10 6 -10 14 0 17 70 27 88 13 18 -14 67 -19 186 -19 81 -1 101 2 111 16 18 24 52 20 82 -10 20 -20 32 -24 52 -19 14 4 37 6 51 6 14 0 40 7 58 15 19 9 45 13 60 9 15 -3 65 -6 112 -7 47 -1 94 -6 105 -11 12 -6 90 -10 188 -9 113 2 166 -1 162 -8 -4 -6 4 -10 19 -10 14 0 28 5 31 11 5 7 32 8 81 4 53 -5 78 -4 89 5 9 7 25 10 42 5 21 -5 24 -8 12 -16 -9 -6 8 -8 51 -8 51 1 58 3 35 9 -28 7 -27 8 13 9 23 0 42 -3 42 -9 0 -6 27 -9 63 -9 57 2 59 2 22 9 -37 7 -36 7 20 8 42 0 54 -2 40 -8 -15 -7 -10 -9 24 -9 57 -1 47 -11 -21 -20 l-53 -7 73 -8 c51 -6 77 -5 85 3 8 8 6 11 -9 12 -18 0 -18 1 1 9 29 12 80 12 109 -1 27 -13 80 -4 71 11 -3 6 5 10 18 10 14 0 27 -6 30 -14 4 -11 -7 -16 -46 -22 -29 -4 -46 -9 -40 -11 7 -3 47 3 89 11 78 16 220 22 159 6 -30 -8 -30 -8 8 -9 21 0 48 4 60 10 12 7 79 13 161 14 94 1 141 6 144 14 2 7 34 11 95 10 l92 -2 -68 -8 c-38 -4 -82 -12 -99 -18 -17 -6 -54 -11 -82 -12 -48 -1 -49 -1 -17 -9 41 -10 183 -6 201 5 9 6 9 9 -1 16 -8 4 45 6 116 4 124 -4 127 -4 70 8 l-60 13 129 2 c72 1 134 6 140 12 12 12 29 13 22 1 -14 -23 372 -24 399 -1 9 8 15 8 20 0 3 -5 44 -10 93 -11 l87 -1 -80 -18 c-77 -17 -78 -18 -33 -19 26 -1 50 4 54 10 4 8 27 10 68 6 69 -7 148 1 140 14 -6 11 41 23 56 14 5 -3 8 -11 4 -16 -4 -7 5 -9 22 -7 17 2 28 8 26 16 -2 10 7 11 33 6 21 -4 41 -2 49 5 10 8 23 7 52 -3 l39 -15 -30 -2 c-77 -5 70 -16 180 -13 171 3 163 3 145 14 -10 7 -11 10 -2 10 7 0 21 -5 31 -12 15 -9 28 -9 59 0 22 7 49 12 61 12 12 0 24 6 27 14 3 8 12 17 20 20 18 7 84 -19 84 -33 0 -15 -56 -23 -110 -16 -31 4 -50 3 -50 -3 0 -5 48 -13 108 -16 59 -4 130 -9 157 -11 l50 -5 -50 15 c-30 9 -66 12 -90 9 -62 -10 -39 1 58 26 84 21 141 21 107 0 -13 -8 -12 -10 3 -10 10 0 15 -4 12 -10 -7 -11 38 -14 48 -3 4 3 -5 17 -19 30 -37 34 -17 55 22 24 18 -14 40 -21 59 -20 16 1 50 -3 73 -10 26 -7 57 -9 75 -5 18 4 38 7 45 5 6 -1 12 5 12 14 0 20 39 20 46 0 8 -20 77 -20 94 0 15 18 46 20 56 4 3 -6 20 -9 38 -6 17 2 44 0 60 -6 24 -8 31 -7 42 7 18 26 91 44 152 38 44 -4 50 -7 40 -19 -17 -21 8 -35 49 -28 17 3 34 1 38 -5 10 -16 50 -12 76 9 13 10 38 21 54 24 17 3 40 8 53 12 21 7 22 5 16 -19 -5 -22 -3 -26 15 -26 14 0 21 6 21 20 0 18 7 19 78 19 42 -1 90 4 105 10 42 16 72 13 92 -9 23 -25 31 -25 62 0 34 27 51 25 65 -5 15 -33 36 -32 67 4 25 28 28 29 81 21 72 -10 171 -40 191 -57 8 -7 25 -13 36 -13 16 0 19 5 15 29 -4 29 -4 29 60 35 34 3 94 7 131 9 61 4 72 8 102 37 37 36 55 34 47 -6 -9 -48 50 -72 85 -35 30 30 79 33 171 10 71 -18 86 -20 93 -8 8 12 10 12 18 -1 6 -8 13 -12 16 -8 4 3 1 15 -6 26 -7 11 -9 27 -6 36 5 14 11 15 27 6 14 -8 20 -21 20 -47 0 -32 2 -35 23 -29 12 3 37 0 54 -6 28 -10 35 -9 45 4 7 9 27 18 43 20 24 2 30 8 30 28 1 24 3 25 55 23 38 -2 63 -9 80 -23 49 -40 68 -45 90 -25 11 10 20 24 20 31 0 7 9 18 20 24 13 7 20 7 20 1 0 -6 11 -18 25 -27 21 -14 31 -15 51 -6 21 10 27 8 46 -13 28 -33 47 -32 61 4 11 29 11 29 22 8 9 -19 19 -22 58 -20 35 2 47 -1 47 -11 0 -8 15 -19 33 -25 29 -11 34 -10 55 15 21 23 27 25 68 19 40 -6 47 -4 65 19 11 14 28 27 38 31 10 3 25 20 32 38 7 18 13 33 14 35 7 10 35 -14 35 -32 1 -48 14 -52 102 -31 24 7 27 4 30 -26 2 -27 8 -35 26 -37 18 -3 26 3 35 27 6 17 17 31 23 31 6 0 22 8 35 19 41 32 83 35 127 10 35 -21 42 -21 71 -9 18 7 39 24 48 37 9 13 25 23 39 23 34 0 30 -26 -6 -45 -34 -17 -34 -19 -20 -46 7 -12 21 -19 40 -19 25 0 30 -4 30 -25 0 -29 12 -32 34 -9 12 11 13 20 6 34 -15 28 -13 32 23 28 28 -3 32 -6 29 -30 -4 -31 9 -36 28 -13 19 23 70 20 70 -4 0 -10 -7 -24 -15 -31 -25 -21 -19 -50 10 -50 21 0 25 5 25 29 0 17 5 33 10 36 6 3 10 15 10 25 0 12 12 22 35 30 19 6 35 16 35 21 0 23 32 5 56 -31 15 -22 30 -40 35 -40 11 0 29 34 29 54 0 17 34 56 49 56 12 0 23 -29 15 -41 -11 -19 7 -29 28 -15 13 9 32 13 50 9 21 -4 37 0 57 14 33 25 103 38 129 24 14 -7 29 -7 51 2 28 10 34 10 45 -6 16 -21 32 -22 40 -2 3 8 10 15 16 15 11 0 62 -34 88 -57 7 -7 21 -13 30 -13 8 0 26 -9 38 -21 12 -12 27 -18 33 -14 16 9 13 41 -4 55 -13 11 -13 16 3 44 9 17 18 32 19 34 0 2 11 -3 22 -10 15 -9 20 -20 17 -33 -3 -11 -2 -25 2 -32 8 -13 80 -15 88 -2 3 5 19 9 35 9 19 0 45 12 70 32 28 23 42 29 50 21 8 -8 8 -17 0 -31 -16 -29 -4 -49 36 -63 25 -8 38 -8 46 0 17 17 24 13 31 -14 4 -16 19 -30 42 -40 20 -8 38 -15 40 -15 7 0 -6 52 -18 77 -16 32 -2 40 25 17 54 -48 122 -59 122 -19 0 17 -6 20 -33 17 -24 -2 -33 2 -30 10 3 8 27 14 61 16 50 3 57 1 57 -16 0 -10 7 -33 15 -49 14 -28 20 -31 86 -37 60 -6 74 -5 90 10 18 16 24 16 52 5 61 -24 65 -24 69 1 2 17 8 22 23 20 86 -14 101 -12 125 13 26 28 46 31 69 12 9 -7 36 -20 60 -27 40 -13 44 -13 58 5 12 17 15 18 23 5 5 -8 10 -18 10 -22 0 -5 11 -8 25 -8 30 0 43 25 27 50 -8 13 -7 21 1 29 17 17 24 14 31 -13 3 -13 18 -29 35 -36 16 -6 37 -20 47 -31 18 -20 54 -26 54 -9 0 5 -9 14 -20 20 -31 17 -25 40 10 40 19 0 30 -5 30 -14 0 -16 21 -26 54 -26 23 0 66 38 66 58 0 18 16 14 31 -7 10 -14 30 -21 62 -24 47 -5 92 -27 112 -54 8 -11 24 -13 63 -7 62 8 80 24 64 59 -7 16 -8 25 -2 25 6 0 14 -10 19 -23 5 -13 17 -29 26 -37 15 -13 20 -11 44 17 22 26 31 30 57 26 18 -3 42 0 54 7 18 9 25 9 40 -5 17 -15 20 -15 44 0 14 9 37 18 51 19 14 2 33 10 43 19 11 9 29 13 50 10 25 -4 39 0 56 16 25 24 61 22 101 -5 11 -8 29 -14 40 -14 11 0 31 -7 43 -16 17 -12 33 -13 70 -8 60 10 73 8 95 -18 16 -19 18 -19 42 -4 14 9 27 27 31 41 5 19 13 25 35 25 26 0 29 -3 29 -35 0 -38 18 -47 41 -19 8 10 21 13 36 9 13 -3 33 -1 44 6 16 8 25 7 39 -6 14 -13 23 -14 39 -6 27 15 28 14 35 -13 8 -32 43 -44 60 -20 9 11 21 15 36 11 12 -3 37 2 56 10 38 19 54 11 36 -17 -32 -52 -1 -66 43 -20 16 16 34 30 41 30 6 0 22 9 36 19 24 19 24 19 36 0 7 -10 12 -26 12 -34 0 -8 7 -15 16 -15 11 0 13 6 9 19 -4 13 2 25 21 40 33 26 44 26 44 1 0 -17 7 -20 48 -20 26 0 53 4 61 9 10 6 25 4 44 -6 19 -10 43 -13 66 -9 23 3 40 1 51 -9 11 -10 26 -11 62 -5 74 14 118 7 141 -24 22 -31 42 -33 57 -6 13 24 29 26 44 4 10 -12 19 -14 46 -6 30 7 35 12 32 35 -3 25 -1 26 23 17 15 -6 38 -10 53 -10 15 0 36 -7 46 -15 10 -8 23 -12 29 -8 12 8 26 -16 28 -47 0 -23 1 -23 9 -5 39 96 40 107 40 736 0 446 -3 610 -11 615 -9 5 -10 -6 -7 -40 3 -26 2 -44 -2 -39 -11 11 -15 104 -6 125 4 9 6 25 3 35 -4 20 -11 9 -21 -39 -6 -24 -9 -26 -37 -18 -16 5 -37 6 -45 3 -9 -3 -29 4 -46 17 -26 19 -34 21 -56 11 -20 -10 -28 -9 -41 3 -14 15 -14 18 2 33 15 16 14 18 -14 35 -42 26 -49 23 -49 -22 0 -54 -30 -75 -90 -61 -53 12 -56 16 -40 47 12 21 12 27 0 34 -8 5 -21 5 -32 -1 -10 -5 -29 -7 -43 -3 -20 5 -25 2 -25 -11 0 -10 7 -23 14 -29 11 -8 13 -20 8 -45 -10 -45 -30 -52 -38 -12 -4 18 -14 33 -27 37 -11 3 -43 29 -70 56 -46 46 -52 49 -86 43 -20 -3 -43 -14 -51 -24 -8 -9 -39 -22 -69 -27 -49 -8 -54 -12 -65 -43 -9 -27 -18 -37 -45 -43 -39 -11 -50 -4 -33 20 20 29 44 74 40 77 -2 2 -15 1 -30 -2 -31 -6 -77 -45 -60 -51 7 -2 12 -11 12 -20 0 -13 -5 -11 -19 8 -18 23 -21 23 -48 10 -15 -8 -40 -25 -55 -38 -28 -26 -48 -23 -48 8 0 23 -36 50 -67 50 -26 0 -30 -12 -8 -30 41 -34 -23 -42 -79 -10 -41 25 -52 47 -31 70 13 14 13 19 1 35 -12 16 -16 17 -30 6 -9 -7 -16 -20 -16 -28 0 -12 -7 -14 -27 -8 -68 17 -113 17 -119 1 -4 -10 1 -25 11 -36 19 -21 16 -23 -22 -20 -15 1 -23 -4 -23 -14 0 -9 -7 -16 -16 -16 -12 0 -15 6 -11 21 6 24 -10 77 -31 101 -14 17 -17 17 -48 -3 l-33 -20 -40 40 c-44 45 -48 46 -86 29 -19 -9 -28 -9 -37 0 -18 18 -38 14 -38 -8 0 -26 -9 -25 -55 5 -29 20 -40 23 -51 14 -20 -16 -31 -2 -16 21 10 16 7 21 -20 34 -34 18 -58 8 -58 -24 0 -21 -32 -31 -71 -23 -21 4 -30 1 -34 -11 -3 -9 -7 -23 -10 -31 -7 -23 -35 -6 -35 20 0 38 -20 40 -48 6 -22 -26 -37 -33 -81 -38 -49 -6 -54 -4 -48 11 4 10 7 20 7 22 0 2 9 4 19 4 29 0 34 16 15 45 -18 28 -55 33 -74 10 -11 -14 -16 -9 -30 32 -12 35 -22 49 -38 51 -19 3 -22 -1 -22 -27 0 -22 8 -36 30 -53 36 -27 37 -32 5 -46 -17 -8 -33 -8 -51 -2 -38 15 -92 12 -119 -6 -14 -9 -35 -14 -47 -11 -12 3 -29 2 -39 -3 -27 -15 -79 7 -79 34 0 22 -33 66 -49 66 -5 0 -14 -6 -21 -14 -6 -8 -24 -16 -38 -18 -41 -5 -40 -39 2 -94 20 -26 36 -56 36 -68 -1 -19 -3 -18 -25 9 -14 17 -25 34 -25 38 0 18 -42 67 -57 67 -19 0 -63 -46 -63 -66 0 -17 -16 -19 -26 -3 -3 6 0 15 7 20 11 6 11 11 1 21 -9 9 -12 9 -12 -4 0 -15 -19 -28 -42 -28 -6 0 -8 12 -5 28 7 33 1 45 -31 61 -37 20 -57 -6 -27 -35 8 -9 15 -22 15 -30 0 -21 -28 -17 -35 6 -10 31 -36 40 -83 28 -34 -9 -46 -7 -67 6 -33 22 -48 20 -84 -10 -25 -21 -36 -24 -66 -18 -20 3 -39 12 -42 19 -2 7 -15 16 -29 19 -13 4 -24 11 -24 16 0 6 -11 10 -25 10 -18 0 -26 -7 -31 -25 -4 -18 -13 -25 -29 -25 -13 0 -26 4 -30 9 -3 5 -21 7 -40 4 -31 -5 -35 -3 -48 28 -14 32 -13 36 10 60 26 29 23 54 -8 64 -27 9 -51 -13 -43 -37 3 -11 3 -36 -1 -55 -5 -30 -9 -34 -28 -28 -59 18 -110 24 -126 15 -10 -5 -35 -7 -55 -3 -30 5 -36 10 -36 30 0 28 -24 40 -45 23 -8 -6 -23 -9 -33 -6 -25 8 -66 -8 -111 -43 -32 -25 -39 -27 -55 -16 -23 18 -43 10 -50 -21 -4 -13 -13 -24 -21 -24 -11 0 -15 12 -15 45 0 49 -16 60 -38 25 -19 -32 -34 -24 -30 16 4 44 -20 67 -49 48 -13 -9 -17 -23 -15 -53 3 -46 2 -47 -38 -26 -21 11 -30 23 -30 39 0 39 -60 46 -60 8 -1 -16 -1 -16 -11 1 -13 23 -35 22 -42 -3 -8 -30 -51 -26 -75 7 -18 25 -20 26 -43 10 -29 -21 -59 -22 -59 -2 0 8 7 15 15 15 18 0 20 16 3 26 -6 4 -14 2 -16 -4 -2 -7 -10 -12 -18 -12 -8 0 -23 -5 -33 -11 -14 -9 -26 -9 -51 0 -31 10 -36 9 -60 -14 -34 -33 -46 -32 -53 5 -4 17 -13 30 -21 30 -17 0 -46 -37 -46 -60 0 -9 -15 -20 -37 -27 -33 -10 -41 -9 -66 9 -16 11 -32 31 -37 44 -11 29 -40 32 -40 4 0 -33 -54 -49 -113 -34 -57 15 -97 39 -97 59 0 26 -19 26 -26 0z"/>
 </g>
<g id="layer103" fill="#71a1e0" stroke="none">
 <path d="M10685 2257 c-14 -21 -22 -24 -54 -20 -23 3 -41 1 -45 -6 -4 -6 -16 -11 -26 -11 -15 0 -19 6 -17 22 3 32 -37 37 -53 8 -7 -12 -18 -19 -25 -16 -18 6 -30 -12 -27 -40 2 -11 -6 -28 -17 -38 -19 -17 -23 -17 -44 -3 -13 8 -35 13 -50 10 -16 -3 -27 -1 -27 6 0 6 12 11 28 11 l27 1 -28 24 c-15 14 -32 25 -37 25 -5 0 -19 -18 -30 -40 -24 -47 -34 -49 -56 -15 -19 29 -58 33 -72 9 -8 -14 -14 -15 -46 -4 -32 10 -40 10 -56 -5 -14 -12 -23 -14 -37 -6 -11 5 -38 7 -61 4 -27 -4 -42 -2 -42 5 0 16 -85 51 -108 45 -10 -2 -34 4 -53 15 l-35 20 -14 -31 c-11 -26 -11 -32 4 -42 14 -11 7 -13 -44 -17 -41 -3 -67 -10 -82 -25 -20 -17 -27 -18 -62 -8 -32 9 -41 18 -54 51 -8 21 -17 41 -19 44 -9 10 -43 -43 -43 -66 0 -17 -6 -24 -20 -24 -11 0 -20 7 -20 15 0 16 -38 40 -48 30 -4 -4 1 -11 11 -16 26 -15 21 -36 -10 -42 -34 -6 -51 6 -55 41 -2 21 -8 27 -28 27 -21 0 -25 -4 -23 -27 1 -18 -3 -28 -12 -28 -7 0 -15 -12 -17 -27 -4 -38 -39 -42 -88 -9 -42 27 -50 24 -69 -27 -16 -42 -29 -32 -26 20 3 39 7 49 27 56 35 12 60 51 52 82 -5 19 -10 23 -17 16 -6 -6 -21 -11 -34 -11 -15 0 -31 -13 -49 -40 -15 -23 -35 -40 -45 -40 -12 0 -21 -10 -25 -25 -5 -19 -13 -25 -34 -25 -33 0 -54 -22 -47 -50 7 -27 -9 -35 -22 -11 -16 30 -13 58 8 73 24 17 37 57 19 62 -53 17 -68 16 -68 -3 0 -11 -9 -25 -19 -31 -27 -14 -31 -13 -31 10 0 56 -75 -19 -90 -89 -4 -19 -12 -24 -47 -27 -43 -4 -52 3 -32 23 9 9 6 20 -11 43 -22 31 -24 32 -78 25 -51 -6 -54 -6 -50 13 3 11 1 26 -3 33 -8 11 -14 8 -33 -14 -13 -16 -34 -34 -47 -41 -18 -9 -23 -19 -21 -39 2 -18 -2 -27 -11 -27 -25 0 -82 28 -101 49 -19 21 -19 22 4 46 29 31 19 42 -24 27 -18 -7 -40 -10 -49 -6 -10 3 -21 -4 -32 -19 -24 -37 -67 -50 -157 -48 -69 1 -83 4 -95 21 -8 11 -22 20 -32 20 -9 0 -22 5 -28 11 -7 7 -20 8 -34 3 -13 -4 -32 -7 -43 -5 -42 6 -66 -8 -66 -39 0 -25 -4 -30 -23 -30 -54 0 -77 54 -25 62 12 2 24 11 26 21 5 23 -28 35 -40 14 -5 -10 -18 -17 -29 -17 -25 0 -36 -27 -21 -51 15 -23 2 -31 -22 -13 -12 8 -20 28 -21 51 -2 20 -7 39 -13 41 -18 6 -62 -29 -68 -54 -9 -35 -61 -34 -74 1 -11 29 -50 34 -70 10 -10 -12 -9 -16 3 -21 9 -3 21 -3 27 1 15 9 40 -13 40 -37 0 -27 -24 -32 -76 -18 -52 15 -94 2 -94 -29 0 -26 -27 -48 -42 -33 -9 9 -6 18 10 35 26 27 27 40 7 57 -8 7 -15 23 -15 36 0 21 -5 24 -34 24 -27 0 -41 -8 -63 -33 -25 -30 -33 -33 -78 -33 -47 1 -50 3 -53 29 -4 30 -26 36 -40 11 -7 -13 -13 -13 -35 -3 -32 15 -57 -1 -57 -37 0 -12 -4 -25 -9 -28 -15 -9 -81 23 -81 39 0 10 -10 15 -28 15 -17 0 -32 8 -40 21 l-13 21 -24 -22 c-14 -13 -21 -29 -19 -43 4 -21 4 -21 -5 -2 -5 11 -10 30 -10 43 -1 25 -13 29 -30 8 -7 -8 -25 -17 -40 -21 -20 -4 -30 -15 -37 -38 -5 -19 -17 -33 -28 -35 -14 -3 -17 0 -13 12 3 8 2 18 -4 22 -6 3 -13 -4 -16 -15 -4 -16 -11 -20 -25 -15 -25 7 -48 -12 -48 -41 0 -16 -8 -25 -26 -29 -14 -4 -34 -22 -45 -40 -20 -35 -55 -56 -92 -56 -16 0 -29 13 -49 53 -15 28 -29 65 -33 80 -3 17 -15 31 -31 37 -31 12 -42 39 -21 52 26 14 20 35 -10 41 -35 7 -43 2 -43 -26 0 -16 -9 -26 -30 -34 -22 -8 -30 -18 -30 -36 0 -20 -6 -26 -27 -29 -24 -3 -29 -9 -36 -46 -11 -58 8 -85 80 -118 51 -22 63 -24 122 -15 36 5 69 7 72 5 4 -2 9 -30 13 -63 4 -33 15 -70 25 -83 28 -35 34 -63 16 -78 -8 -7 -15 -18 -15 -26 0 -27 -20 -24 -35 6 -8 16 -22 30 -29 30 -19 0 -41 -29 -41 -54 0 -17 -7 -22 -37 -24 -29 -2 -37 -8 -42 -28 -4 -14 -4 -29 -1 -35 4 -5 -2 -12 -12 -16 -22 -7 -63 -43 -63 -55 0 -5 9 -4 20 2 24 13 28 -5 3 -18 -9 -5 -17 -18 -18 -28 -3 -44 -35 -61 -35 -20 0 14 -5 28 -10 31 -7 4 -6 13 1 26 22 42 -15 64 -64 38 -18 -10 -24 -8 -43 16 -29 36 -37 20 -25 -52 5 -32 7 -60 5 -62 -1 -2 -14 -1 -28 3 -34 8 -61 59 -46 86 9 17 8 20 -14 20 -35 0 -106 -69 -106 -103 0 -31 -26 -38 -33 -9 -23 83 -18 102 28 102 39 0 53 16 33 36 -11 11 -21 12 -41 5 -15 -6 -27 -15 -27 -20 0 -5 -16 -19 -36 -30 -31 -18 -35 -25 -30 -47 11 -44 -1 -64 -40 -64 -33 0 -45 12 -24 25 19 12 10 44 -20 65 -33 23 -39 50 -15 70 13 11 20 11 40 0 20 -11 27 -11 40 0 18 15 11 30 -14 30 -10 0 -34 16 -54 35 -42 40 -74 45 -86 13 -5 -13 -24 -38 -42 -57 -35 -35 -41 -71 -24 -148 9 -39 -9 -44 -51 -16 -21 13 -30 14 -45 5 -23 -15 -49 -16 -49 -2 0 5 18 21 40 35 44 28 52 58 21 75 -16 8 -23 6 -35 -12 -12 -17 -18 -20 -28 -10 -20 20 -38 14 -38 -13 0 -22 -4 -24 -42 -23 -24 0 -56 -3 -72 -7 l-29 -8 5 46 5 45 -24 -29 c-21 -24 -23 -32 -12 -45 10 -12 9 -18 -4 -31 -15 -15 -18 -15 -35 0 -21 20 -43 22 -59 6 -13 -13 -69 -8 -66 6 1 6 12 12 25 15 18 5 24 14 26 40 2 19 8 40 13 46 14 16 -16 44 -47 44 -19 0 -26 -6 -30 -30 -6 -28 -10 -30 -51 -30 -40 0 -45 -2 -40 -19 3 -11 -1 -28 -8 -38 -6 -10 -15 -38 -18 -61 -5 -42 -4 -44 28 -58 18 -7 44 -28 58 -45 17 -22 30 -30 42 -26 9 4 13 11 10 17 -3 5 2 10 11 10 14 0 15 -3 6 -12 -7 -7 -12 -25 -12 -40 0 -21 6 -31 25 -38 29 -11 30 -17 10 -44 -22 -29 -18 -45 10 -52 27 -7 32 -23 14 -41 -8 -8 -5 -14 12 -24 13 -6 28 -18 32 -25 4 -8 17 -14 27 -14 10 0 22 -4 25 -10 9 -15 35 -12 35 4 0 7 -7 19 -15 26 -19 16 -19 44 0 74 19 29 13 46 -25 68 -38 21 -49 47 -27 60 11 6 17 22 17 43 0 35 0 35 44 35 38 0 48 -4 67 -31 18 -26 20 -35 10 -55 -6 -14 -11 -32 -11 -40 0 -9 -9 -27 -20 -41 -20 -25 -26 -63 -14 -76 4 -3 18 3 32 13 25 20 57 26 66 12 2 -4 -9 -27 -25 -51 -39 -57 -35 -75 17 -79 35 -3 44 1 59 24 14 21 15 31 6 51 -14 30 6 41 41 22 20 -11 124 -28 181 -30 28 -1 97 53 97 77 0 20 23 33 58 34 18 0 15 -60 -4 -81 -21 -23 -11 -38 24 -37 15 1 32 0 37 -1 6 -2 24 -3 41 -2 28 1 33 5 39 37 4 26 2 39 -8 47 -23 19 -31 66 -12 73 17 7 48 -14 40 -26 -10 -17 9 -42 47 -61 23 -12 44 -32 51 -49 12 -27 13 -28 33 -12 12 9 24 25 27 34 14 40 67 6 67 -43 0 -32 12 -36 49 -15 27 15 61 3 85 -29 7 -10 18 -15 24 -11 17 10 15 23 -9 45 -18 16 -19 22 -9 41 7 12 9 36 6 52 -5 24 -3 29 12 26 13 -2 18 -16 22 -53 5 -46 7 -50 33 -53 33 -4 74 33 106 96 18 34 27 42 50 42 26 0 29 -4 34 -45 4 -27 2 -55 -5 -71 -10 -21 -9 -27 3 -34 16 -11 119 -2 133 11 14 13 -2 39 -24 39 -23 0 -24 4 -10 31 6 11 21 19 35 19 27 0 32 -9 14 -27 -7 -7 2 -12 30 -17 33 -5 41 -10 41 -27 0 -13 -8 -23 -20 -26 -16 -4 -19 -11 -14 -27 3 -11 13 -26 21 -32 8 -7 13 -24 11 -39 -2 -23 2 -30 25 -37 33 -12 35 -11 43 29 5 25 2 32 -14 37 -17 6 -19 12 -12 35 17 60 27 69 67 64 71 -8 136 -3 153 12 9 8 26 15 38 15 12 0 27 9 34 20 15 24 36 26 45 4 4 -11 -2 -23 -17 -34 -15 -12 -21 -23 -17 -34 10 -26 42 -15 45 16 2 16 11 28 23 31 11 3 23 15 26 26 3 12 8 21 10 21 11 0 48 -56 53 -79 7 -33 43 -43 38 -11 -2 17 5 25 37 37 22 8 51 17 65 20 14 3 34 13 45 23 36 31 44 32 82 3 34 -26 43 -28 135 -29 85 0 100 -3 112 -20 8 -10 18 -16 22 -11 4 4 2 13 -4 19 -7 7 -12 20 -12 30 0 9 -9 22 -20 28 -17 9 -29 40 -16 40 2 0 26 -20 52 -45 27 -25 54 -45 60 -45 6 0 16 11 22 24 10 22 14 24 43 16 33 -10 49 -25 49 -47 0 -21 16 -15 28 11 7 17 7 27 -1 35 -8 8 -8 11 0 11 6 0 16 -7 23 -15 18 -22 44 -18 55 7 14 31 32 33 39 3 8 -32 29 -32 51 2 l18 26 19 -26 c24 -33 38 -34 63 -4 l20 22 3 -27 c4 -33 5 -33 43 -11 15 9 31 15 34 12 7 -8 -24 -69 -36 -69 -5 0 -9 -7 -9 -15 0 -17 16 -20 25 -5 3 6 13 10 21 10 16 0 19 -36 4 -45 -21 -13 2 -23 33 -14 17 5 44 9 60 9 15 0 41 7 57 15 27 14 29 14 49 -13 19 -25 21 -26 37 -10 16 15 16 19 1 41 -8 13 -17 34 -19 48 -2 15 -11 25 -23 27 -11 2 -35 11 -53 20 -25 13 -32 22 -28 37 3 11 6 23 6 28 0 4 7 7 15 7 8 0 24 -18 35 -41 18 -35 25 -40 46 -35 15 4 39 -1 65 -14 22 -12 53 -20 67 -18 24 3 27 7 25 38 -1 21 -9 41 -21 51 -20 15 -18 17 42 38 58 20 64 25 75 60 6 21 11 46 11 55 0 10 8 16 23 16 12 0 33 7 46 16 16 12 35 15 65 11 26 -4 47 -2 54 5 9 9 16 8 29 -4 10 -8 35 -19 56 -22 27 -5 40 -14 47 -30 10 -27 30 -37 58 -29 13 3 25 -3 36 -18 21 -31 20 -49 -2 -49 -50 0 -21 -44 40 -60 68 -19 105 -47 112 -85 7 -38 -4 -69 -29 -79 -22 -8 -19 -36 5 -36 11 0 20 5 20 11 0 6 6 9 13 6 6 -2 12 -14 12 -27 0 -13 6 -25 14 -28 10 -3 12 2 7 22 -11 43 18 44 68 2 26 -21 55 -36 71 -36 25 0 26 3 23 38 -3 33 0 38 29 52 34 16 39 29 23 60 -14 27 -16 103 -2 108 22 7 27 2 30 -28 5 -72 8 -86 15 -97 12 -19 27 -16 27 6 0 29 28 47 51 33 42 -27 77 2 45 37 -13 14 -14 24 -7 44 8 21 37 47 53 47 6 0 1 -81 -6 -87 -11 -11 -6 -40 9 -53 14 -12 14 -15 0 -30 -12 -14 -26 -17 -55 -13 -32 5 -41 2 -46 -12 -11 -27 23 -47 67 -40 27 5 38 2 42 -8 6 -15 75 -28 107 -20 26 7 26 30 0 38 -15 5 -19 12 -14 30 4 16 0 27 -16 38 -18 13 -20 18 -10 37 9 18 8 25 -5 40 -19 21 -12 57 14 77 37 29 58 -2 25 -38 -12 -13 -13 -22 -5 -37 23 -43 81 -35 115 15 13 19 27 30 30 25 14 -23 77 -23 122 -1 44 21 47 21 83 4 56 -25 75 -18 79 28 4 46 40 70 73 49 10 -7 32 -12 48 -12 26 0 30 3 28 27 -2 24 4 30 40 42 40 14 44 14 57 -4 18 -24 99 -30 117 -9 6 8 25 14 42 14 23 0 38 10 64 40 39 46 53 44 53 -6 0 -22 6 -37 15 -40 24 -9 65 23 65 51 0 26 19 75 30 75 15 0 50 -61 50 -88 0 -41 20 -62 51 -55 23 4 27 11 33 50 9 71 19 77 78 47 33 -17 59 -23 74 -20 21 6 24 3 24 -24 0 -30 2 -31 37 -28 35 3 38 6 43 38 4 20 10 41 14 48 10 17 87 15 110 -3 11 -8 35 -15 54 -15 l33 0 -21 -28 c-12 -15 -29 -30 -38 -34 -15 -6 -14 -8 5 -13 12 -4 23 -17 25 -28 4 -27 38 -35 50 -12 5 9 20 20 32 25 15 5 25 20 29 39 4 17 11 31 17 31 11 0 5 -54 -11 -96 -10 -28 11 -57 37 -52 15 3 19 12 19 43 l0 40 50 5 50 5 -3 35 c-1 20 -17 57 -37 86 -41 60 -43 74 -11 74 13 0 31 3 39 6 22 8 51 -40 51 -85 1 -59 20 -75 51 -45 15 15 15 18 -5 39 l-20 22 20 18 c11 10 20 26 20 37 0 10 6 18 13 18 18 0 37 -43 30 -68 -2 -11 1 -30 7 -42 10 -19 18 -21 47 -17 20 4 44 2 53 -3 13 -7 24 -5 40 8 29 23 80 18 80 -9 0 -23 29 -39 70 -39 27 0 30 -2 24 -25 -5 -19 -2 -25 9 -25 9 0 19 5 22 11 4 6 19 7 36 4 25 -6 29 -4 29 14 0 34 28 24 49 -17 29 -58 40 -63 106 -56 62 8 95 30 95 65 0 20 1 20 30 2 34 -20 35 -22 19 -57 -9 -20 -9 -29 1 -41 15 -18 65 -20 79 -3 45 58 97 108 111 108 25 0 32 -27 11 -42 -13 -10 -17 -22 -13 -50 5 -49 20 -48 39 1 10 26 23 41 39 45 13 4 24 11 24 16 0 5 17 21 37 34 34 23 38 24 54 10 24 -22 99 -10 106 17 6 23 38 25 47 4 3 -8 14 -15 25 -15 11 0 23 -4 26 -10 3 -5 18 -10 32 -10 16 0 37 -12 57 -35 18 -19 37 -35 44 -35 18 0 24 18 12 41 -10 17 -8 23 6 34 10 7 19 24 19 37 0 19 6 23 37 26 28 2 43 11 63 38 24 31 29 34 66 28 39 -7 49 2 28 23 -8 8 -5 14 10 22 31 17 26 38 -13 51 -23 7 -38 21 -46 41 -11 27 -10 32 9 50 11 11 21 27 21 35 0 9 8 14 18 13 34 -3 42 1 58 33 16 31 16 32 -6 50 -22 18 -23 17 -50 -12 -15 -17 -33 -30 -38 -30 -6 0 -18 -21 -28 -46 -16 -42 -20 -45 -46 -40 -38 8 -63 -29 -54 -80 7 -33 6 -35 -16 -32 -22 3 -23 7 -23 74 1 65 -1 71 -24 82 -31 15 -58 15 -66 2 -8 -13 -52 -13 -60 0 -4 6 -1 18 6 26 20 24 -5 42 -29 21 -10 -9 -26 -17 -35 -17 -30 0 -27 -18 8 -41 28 -20 33 -28 28 -49 -8 -35 -13 -38 -20 -12 -3 14 -13 22 -27 22 -11 0 -32 9 -46 20 -15 12 -41 20 -66 20 -31 0 -45 5 -56 21 -13 20 -16 21 -53 8 -22 -7 -42 -14 -44 -16 -2 -1 7 -11 20 -22 19 -15 21 -22 12 -32 -16 -16 -43 -4 -43 20 0 11 -9 25 -20 31 -15 8 -20 21 -20 50 0 34 -3 40 -21 40 -18 0 -20 -5 -17 -42 3 -38 0 -43 -19 -46 -17 -3 -26 3 -33 22 -8 23 -12 25 -29 14 -16 -9 -25 -9 -48 2 -15 8 -31 16 -35 18 -5 2 -8 -6 -8 -17 0 -16 -6 -21 -25 -21 -14 0 -28 -7 -31 -15 -8 -21 -30 -19 -55 6 -19 19 -22 19 -44 5 -37 -24 -73 -20 -87 9 -6 14 -14 26 -17 26 -3 1 -17 3 -30 4 -13 1 -32 13 -41 25 -11 15 -23 21 -34 17 -22 -9 -20 -20 9 -47 30 -28 32 -46 5 -55 -25 -8 -39 0 -50 31 -6 14 -18 24 -30 24 -23 0 -24 2 -9 70 8 40 16 53 35 60 22 9 24 14 18 50 -8 48 9 59 53 37 16 -8 44 -12 67 -9 l38 4 -6 42 c-9 52 -17 60 -49 45 -18 -8 -34 -9 -54 -1 -35 12 -63 0 -63 -27 0 -10 -7 -24 -15 -31 -8 -7 -20 -30 -25 -51 -6 -23 -17 -39 -25 -39 -18 0 -20 21 -3 38 17 17 3 26 -20 13 -11 -6 -28 -8 -36 -5 -9 3 -17 1 -17 -5 -1 -6 -3 -15 -4 -21 -1 -5 -3 -14 -4 -20 0 -5 -10 -10 -21 -10 -13 0 -25 12 -34 34 -18 43 -64 56 -119 32 -20 -8 -56 -18 -80 -21 -43 -7 -46 -5 -72 30 -23 29 -33 35 -53 30 -22 -5 -52 8 -52 24 0 3 42 5 93 5 153 -2 164 1 188 55 18 41 19 50 8 85 -7 21 -20 40 -28 43 -9 2 -29 11 -44 19 -16 7 -55 14 -87 14 -47 0 -63 4 -79 21 -15 17 -23 19 -39 10 -28 -15 -69 -14 -75 2 -3 6 -6 2 -6 -9 -2 -35 -26 -49 -66 -36 -21 6 -37 6 -41 1 -12 -19 -34 -7 -65 36 -34 47 -59 58 -59 25 0 -39 -69 -48 -97 -12 -18 21 -41 8 -51 -30 -9 -35 -4 -34 -124 -29 -35 1 -38 3 -38 31 0 34 -7 38 -25 13 -14 -19 -35 -10 -35 16 0 10 -6 24 -14 30 -12 10 -18 8 -31 -12z"/>
 <path d="M14423 1545 c-24 -25 -43 -51 -43 -59 0 -20 -45 -86 -70 -103 -35 -25 -43 -50 -24 -82 16 -27 16 -29 -5 -58 -12 -16 -19 -36 -16 -45 7 -18 84 -33 98 -19 10 10 87 -13 145 -43 17 -9 38 -13 47 -10 9 4 27 1 40 -6 20 -10 27 -10 49 6 32 24 32 29 0 61 -23 23 -27 62 -4 48 5 -3 19 -1 31 5 25 14 36 6 20 -14 -29 -35 13 -41 51 -8 16 13 19 11 37 -29 27 -63 47 -87 61 -73 13 13 15 40 5 72 -10 29 17 30 46 1 16 -16 19 -28 15 -54 -4 -22 -2 -36 8 -44 11 -10 20 -3 45 34 17 25 31 51 31 57 0 6 11 8 26 5 15 -3 42 1 60 9 49 21 64 18 64 -11 0 -31 28 -45 42 -22 12 22 36 21 71 -2 41 -27 64 -17 72 30 13 78 -22 129 -90 129 -24 0 -24 0 -7 29 16 28 16 31 -3 50 -14 17 -16 24 -7 33 20 20 13 56 -16 89 -30 34 -52 33 -52 -2 0 -18 -27 -26 -70 -20 -32 5 -52 2 -82 -13 -17 -9 -32 -15 -33 -14 0 2 -5 16 -11 33 -8 26 -15 31 -59 37 -55 8 -65 5 -65 -21 0 -20 -49 -67 -85 -81 -14 -5 -25 -15 -25 -21 0 -8 -4 -8 -15 1 -19 16 -11 49 19 72 18 15 19 19 6 28 -18 11 -70 -41 -70 -71 0 -23 -28 -26 -37 -4 -3 9 -19 23 -35 31 -31 16 -33 30 -13 78 7 16 5 17 -22 12 -21 -5 -35 -2 -46 8 -23 24 -38 19 -84 -29z"/>
 </g>
<g id="layer104" fill="#749fe1" stroke="none">
 <path d="M22 2350 c0 -19 0 -46 -2 -60 l-2 -25 -8 25 c-4 14 -8 -342 -7 -790 0 -448 3 -790 7 -760 5 45 7 50 11 25 3 -19 6 -7 6 30 0 33 -4 75 -9 93 -7 24 -7 37 1 45 14 14 12 22 21 -113 l7 -115 -1 113 c0 61 2 112 7 112 4 0 7 -18 7 -39 l0 -40 63 2 62 2 -3 38 c-2 25 1 37 10 37 26 0 41 -19 42 -52 1 -25 6 -34 22 -36 11 -2 27 4 34 13 7 8 18 15 24 15 6 0 22 16 34 36 18 27 27 33 35 25 8 -8 8 -20 -2 -46 -7 -19 -9 -39 -6 -45 11 -18 151 -9 182 11 20 14 31 15 46 7 11 -6 38 -8 61 -5 30 4 46 1 59 -11 18 -16 20 -15 43 11 13 16 24 34 24 41 0 8 7 20 16 27 14 11 18 10 30 -6 8 -10 14 -32 14 -49 0 -60 5 -101 13 -114 11 -17 47 3 47 26 0 20 44 65 73 75 9 4 17 16 17 27 0 21 24 28 36 9 6 -10 -7 -24 -30 -32 -5 -2 1 -22 14 -45 19 -34 21 -44 10 -56 -16 -21 -6 -46 19 -46 27 0 34 15 19 39 -10 17 -9 24 10 44 17 18 29 22 59 19 21 -3 42 -11 46 -18 4 -8 23 -14 42 -14 43 0 93 -44 74 -66 -13 -16 -5 -44 13 -44 7 0 19 9 26 20 9 15 19 18 40 14 22 -5 37 2 73 31 24 20 48 45 53 56 5 10 17 19 27 19 15 0 18 -7 16 -37 -2 -32 1 -38 18 -38 17 0 19 6 17 33 -2 19 1 32 8 32 8 0 10 15 5 48 -6 45 -4 50 19 66 14 9 26 23 26 30 0 8 6 16 14 19 12 5 14 -3 13 -35 -2 -51 19 -63 34 -19 14 41 37 39 55 -5 12 -27 20 -35 37 -32 17 2 22 9 20 31 -1 22 2 27 23 27 16 0 24 6 24 17 0 22 76 93 101 93 30 0 37 -31 11 -48 -12 -8 -22 -23 -22 -33 0 -10 -9 -24 -20 -31 -28 -18 -25 -38 6 -38 15 0 38 13 57 32 l32 31 6 -36 c7 -45 11 -49 33 -41 12 5 17 16 15 38 -4 36 6 56 27 56 9 0 14 -11 14 -30 0 -17 5 -30 13 -31 6 -1 23 -2 37 -2 17 -2 26 -9 30 -27 l6 -25 12 23 c15 25 37 29 46 7 5 -13 10 -14 27 -5 16 9 19 18 15 36 -5 20 -3 24 14 24 11 0 32 8 46 17 21 13 25 22 20 45 -4 21 -1 30 14 38 17 9 22 7 30 -14 8 -22 14 -25 42 -19 18 3 41 10 51 15 24 12 47 -6 40 -32 -3 -11 0 -20 6 -20 6 0 11 9 11 20 0 26 39 48 51 29 5 -8 9 -19 9 -25 0 -29 42 -63 91 -73 57 -13 76 -5 81 32 4 29 56 37 75 12 19 -27 41 -11 45 31 4 53 44 75 138 77 73 2 81 -4 61 -41 -10 -19 -66 -28 -76 -12 -3 5 -12 10 -19 10 -10 0 -16 -21 -19 -67 -4 -38 -7 -79 -9 -93 -4 -32 24 -38 51 -11 15 15 19 28 15 50 -6 26 -3 31 20 37 19 4 33 1 46 -11 16 -15 23 -15 57 -3 51 18 106 72 98 98 -7 21 19 40 55 40 19 0 21 -4 15 -30 -11 -51 28 -78 64 -46 9 8 28 18 43 21 24 6 28 4 28 -14 0 -22 -37 -38 -65 -27 -21 8 -19 0 11 -40 22 -28 33 -34 63 -34 29 0 46 9 85 45 26 25 52 45 57 45 5 0 9 -16 9 -35 0 -38 6 -42 36 -21 19 14 19 15 -5 40 -21 23 -23 29 -13 52 11 22 18 25 50 22 31 -2 39 1 47 20 13 29 27 23 37 -17 11 -41 35 -51 57 -23 9 12 31 24 48 28 18 4 38 13 44 20 15 19 39 18 39 -1 0 -8 -7 -15 -16 -15 -11 0 -14 -5 -10 -17 4 -10 -2 -25 -14 -38 -17 -18 -20 -30 -14 -64 5 -34 10 -41 23 -35 9 3 27 9 41 12 14 3 42 16 64 30 l39 24 21 -27 c28 -35 69 -32 74 5 5 35 15 42 36 27 16 -12 16 -14 -5 -41 -15 -19 -18 -31 -11 -38 18 -18 45 -4 54 28 8 33 33 51 44 33 3 -6 -3 -24 -15 -40 -12 -16 -21 -43 -21 -64 0 -31 -3 -35 -25 -35 -28 0 -33 -21 -10 -40 15 -13 23 -10 72 29 19 15 33 35 33 47 0 21 28 54 47 54 6 0 17 -9 24 -20 10 -14 18 -17 29 -10 12 8 13 13 3 30 -17 26 -16 40 3 61 9 10 19 33 23 51 8 39 38 51 43 16 4 -33 36 -35 48 -4 10 28 20 32 37 15 7 -7 36 -10 77 -7 51 3 71 9 90 27 20 19 28 21 45 12 20 -11 25 -26 22 -62 -2 -20 24 -43 42 -36 7 3 19 28 27 57 14 50 15 51 30 32 9 -11 25 -22 36 -26 30 -9 80 -76 64 -86 -20 -12 44 -42 75 -34 14 4 25 2 25 -4 0 -6 3 -18 6 -27 5 -13 2 -15 -20 -9 -38 9 -80 -29 -65 -59 6 -11 8 -32 5 -48 -6 -31 4 -38 24 -15 6 8 27 20 47 27 25 8 32 14 24 22 -6 6 -11 21 -11 33 0 28 58 39 98 18 15 -7 32 -14 39 -14 20 0 26 40 9 59 -9 10 -16 25 -16 33 0 29 -12 48 -30 48 -10 0 -23 6 -29 14 -10 12 -7 18 19 31 28 14 37 15 64 3 17 -7 56 -11 88 -9 52 3 59 1 66 -19 8 -22 67 -50 105 -50 10 0 36 -9 59 -20 22 -11 44 -17 49 -14 10 6 -25 77 -47 95 -8 6 -14 20 -14 30 0 31 56 4 70 -34 l11 -32 25 30 c15 19 24 24 24 15 0 -8 8 -24 16 -35 15 -20 15 -20 34 2 20 25 45 31 37 9 -4 -10 7 -16 40 -21 37 -5 47 -3 59 12 7 10 14 23 14 29 0 6 9 19 20 29 11 10 20 25 21 34 0 10 4 7 10 -7 5 -13 23 -29 39 -35 25 -10 30 -16 25 -34 -4 -16 1 -25 15 -33 27 -15 14 -40 -21 -40 -35 0 -49 -25 -26 -48 13 -12 21 -13 41 -4 13 6 34 8 45 5 20 -5 21 -3 15 35 -6 39 -5 41 22 44 26 3 29 6 26 36 -2 37 19 52 44 32 12 -11 17 -9 30 9 13 17 19 20 30 10 8 -6 27 -9 42 -6 15 3 34 1 42 -4 13 -8 11 -12 -7 -26 -30 -21 -29 -41 3 -53 20 -8 25 -16 22 -38 -3 -25 0 -27 32 -27 30 0 35 4 44 33 8 29 6 36 -17 60 -15 16 -27 39 -27 53 0 14 -5 30 -11 36 -15 15 -4 43 17 43 10 0 25 7 35 16 11 10 19 12 24 5 3 -6 -5 -15 -19 -21 -19 -7 -24 -14 -19 -27 9 -27 35 -54 61 -64 13 -5 22 -17 22 -29 0 -26 20 -26 53 0 32 25 25 50 -12 50 -21 0 -31 8 -44 35 -9 19 -13 35 -8 35 13 0 101 -81 101 -93 1 -16 36 -57 49 -57 16 0 14 57 -2 67 -8 4 -21 22 -29 40 -13 26 -14 35 -3 49 11 16 16 15 60 -15 41 -28 54 -31 86 -26 46 8 43 20 -6 29 -26 5 -35 12 -35 27 0 18 4 20 48 13 58 -8 61 -10 72 -40 13 -33 36 -30 48 5 8 24 15 28 35 24 14 -3 34 -14 43 -24 21 -23 37 -24 54 -4 9 11 22 14 39 10 21 -4 32 0 49 19 13 16 28 23 37 20 14 -6 14 -8 0 -24 -8 -9 -15 -27 -15 -39 0 -21 3 -23 37 -16 52 10 54 11 47 55 -5 32 -3 41 11 46 22 9 37 -14 30 -44 -8 -33 1 -43 30 -32 16 6 27 6 30 -1 8 -13 46 -2 62 18 9 11 9 22 1 42 -6 14 -12 54 -13 89 -1 58 5 76 20 52 3 -6 17 -10 29 -10 13 0 35 -9 49 -20 30 -24 45 -25 73 -6 17 12 19 22 15 63 l-6 48 -45 3 c-34 2 -53 11 -77 35 -18 17 -33 38 -33 48 0 34 -24 39 -162 37 l-134 -3 -38 31 c-31 24 -44 45 -65 110 -23 70 -29 80 -56 88 -16 5 -54 20 -83 34 -39 18 -58 22 -73 16 -21 -10 -49 -71 -49 -110 0 -23 45 -67 99 -96 34 -19 39 -45 11 -58 -8 -5 -39 -13 -68 -20 -63 -14 -73 -8 -76 46 -1 22 -8 49 -14 61 -7 12 -12 33 -12 46 0 37 -19 46 -112 53 -69 5 -92 4 -118 -10 -43 -21 -57 -20 -70 4 -7 14 -8 26 0 39 16 31 12 45 -23 84 -60 68 -135 59 -142 -18 -4 -35 -33 -74 -57 -75 -13 0 -38 32 -38 50 0 10 -3 25 -6 34 -4 10 8 23 35 41 22 15 44 40 50 56 5 16 15 29 21 29 6 0 22 12 35 26 20 21 25 38 25 75 0 52 -11 61 -41 33 -24 -21 -115 -22 -136 -1 -19 19 -82 6 -97 -20 -6 -10 -11 -47 -11 -82 0 -64 0 -65 -32 -74 -44 -13 -120 0 -145 25 -17 17 -19 29 -16 69 4 43 2 51 -23 75 -24 23 -31 25 -45 14 -12 -11 -14 -24 -10 -52 6 -34 3 -39 -23 -52 -32 -17 -57 -6 -63 28 -5 30 -34 43 -59 28 -18 -12 -24 -11 -36 0 -19 19 -7 47 18 41 22 -6 37 23 20 40 -8 8 -14 6 -24 -7 -12 -16 -14 -16 -31 3 -26 29 -40 26 -57 -11 -13 -31 -17 -33 -64 -33 -58 0 -75 -8 -75 -36 0 -22 -9 -24 -44 -7 -22 9 -29 8 -45 -6 -11 -10 -28 -16 -38 -14 -14 3 -17 12 -15 46 3 53 -17 56 -47 7 -21 -36 -41 -46 -41 -21 0 7 -7 20 -16 27 -9 8 -27 31 -40 51 -24 37 -56 50 -69 28 -4 -6 3 -27 15 -47 11 -19 19 -38 16 -40 -3 -3 -27 -4 -53 -3 -26 1 -87 3 -135 4 -77 1 -88 3 -88 19 0 10 -6 20 -13 23 -15 5 -77 -47 -77 -65 0 -17 -27 -13 -34 4 -3 8 -17 20 -30 26 -33 16 -37 30 -18 68 15 32 15 34 -9 52 -31 24 -65 21 -61 -5 5 -30 -8 -106 -18 -106 -15 0 -28 63 -18 83 5 10 7 24 5 32 -7 18 -88 25 -94 8 -3 -7 -16 -13 -29 -13 -16 0 -28 -8 -35 -24 -10 -21 -14 -22 -41 -12 -25 9 -32 8 -43 -8 -8 -11 -21 -16 -30 -13 -18 8 -20 28 -2 46 10 10 9 14 -5 22 -10 6 -18 21 -18 34 0 32 -23 32 -40 0 -15 -27 -30 -31 -48 -13 -6 6 -31 14 -54 17 -43 6 -43 7 -40 44 2 32 0 37 -18 37 -36 0 -58 -33 -54 -80 2 -24 6 -53 10 -64 3 -12 2 -16 -3 -10 -4 6 -19 15 -31 19 -14 4 -30 21 -38 40 -16 39 -49 50 -117 40 -49 -8 -68 5 -46 32 11 13 10 17 -6 29 -10 8 -24 14 -30 14 -17 0 -35 -22 -35 -42 0 -30 -66 -24 -94 9 l-23 27 -17 -31 c-21 -42 -20 -70 4 -83 16 -9 18 -14 8 -35 -15 -33 -32 -19 -49 41 -17 56 -22 60 -82 68 -52 8 -68 -5 -48 -43 7 -13 8 -22 1 -26 -16 -10 -50 14 -50 35 0 11 -3 20 -7 21 -5 0 -22 2 -40 3 -25 3 -36 -2 -48 -20 -23 -36 -18 -50 22 -60 46 -11 51 -27 19 -59 -30 -29 -46 -25 -46 11 0 25 -4 28 -52 38 -32 7 -35 21 -12 47 27 30 11 49 -33 42 -21 -3 -45 -12 -55 -20 -14 -13 -20 -12 -47 1 -17 9 -52 19 -77 23 -41 5 -49 3 -64 -17 -11 -14 -23 -20 -31 -16 -70 36 -94 54 -92 72 2 10 -1 25 -6 33 -8 12 -16 9 -42 -17 -39 -38 -79 -42 -110 -11 -29 29 -47 19 -63 -33 -3 -12 -15 -18 -33 -18 -40 0 -55 13 -51 45 3 32 -17 46 -26 17 -4 -10 -18 -24 -31 -30 -19 -9 -25 -19 -25 -43 l0 -32 -46 6 c-39 4 -50 1 -68 -17 -28 -29 -70 -46 -86 -36 -8 5 -21 5 -30 0 -9 -5 -26 -6 -38 -3 -17 4 -24 -1 -32 -21 -11 -29 -13 -30 -41 -15 -16 8 -26 7 -44 -5 -14 -9 -33 -16 -44 -16 -17 0 -20 5 -15 28 2 15 0 34 -6 42 -8 13 -13 13 -41 -2 -17 -10 -37 -18 -44 -18 -23 0 -28 -20 -10 -40 19 -21 14 -50 -9 -50 -23 0 -66 18 -82 35 -20 19 -38 19 -91 -1 -51 -20 -93 -8 -93 26 0 11 -5 20 -10 20 -19 0 -22 -30 -6 -55 9 -13 16 -27 16 -30 0 -13 -75 -3 -92 12 -14 13 -21 14 -30 5 -7 -7 -29 -12 -50 -12 -32 0 -40 -4 -48 -25 -12 -31 -17 -31 -40 -3 -17 21 -21 22 -54 10 -21 -8 -50 -11 -67 -7 -28 6 -30 5 -27 -22 3 -25 0 -28 -22 -25 -14 2 -30 10 -36 18 -6 8 -25 14 -42 14 -26 0 -37 -8 -62 -45 l-31 -45 -30 21 -30 21 25 27 c14 15 26 32 26 39 0 19 -38 34 -58 23 -12 -7 -24 -4 -41 11 -16 12 -33 17 -47 14 -13 -4 -27 0 -34 9 -20 24 -73 19 -100 -10 -27 -29 -42 -31 -75 -9 -35 23 -57 5 -45 -37 10 -35 -1 -37 -47 -9 -27 16 -33 26 -33 54 0 30 3 35 27 38 37 4 45 38 9 38 -15 0 -30 8 -36 20 -15 29 -73 27 -92 -2 -14 -21 -16 -21 -32 -5 -20 20 -21 20 -47 7 -16 -9 -21 -7 -31 15 -13 30 -36 32 -69 6 -25 -19 -25 -19 -58 8 -26 21 -36 40 -47 87 -10 44 -13 50 -12 24z"/>
 <path d="M13203 2358 c-6 -7 -13 -25 -17 -40 -8 -34 -44 -38 -71 -8 -27 30 -91 25 -88 -7 3 -25 -21 -48 -42 -39 -8 3 -25 21 -36 41 -19 32 -25 35 -65 35 -38 0 -44 -3 -44 -21 0 -22 -25 -48 -47 -49 -7 0 -13 7 -13 15 0 8 9 15 19 15 31 0 35 19 9 40 -33 28 -42 25 -72 -20 -22 -34 -29 -39 -46 -30 -10 5 -30 10 -43 10 -14 0 -30 7 -37 15 -17 20 -24 19 -59 -11 -22 -18 -37 -24 -52 -19 -12 4 -38 2 -58 -5 -31 -10 -43 -9 -74 4 -31 13 -37 20 -37 45 0 39 -23 41 -46 5 -10 -14 -23 -23 -31 -20 -8 3 -23 1 -34 -5 -15 -7 -24 -7 -34 1 -27 22 -85 -13 -85 -51 0 -20 34 -27 45 -9 3 6 13 10 22 10 14 0 14 -3 -1 -25 -9 -14 -18 -37 -20 -52 -6 -45 -17 -63 -42 -69 -29 -8 -44 2 -44 28 0 34 -33 97 -51 98 -9 0 -23 -10 -31 -22 -9 -13 -19 -18 -27 -14 -9 6 -9 12 4 26 24 26 17 85 -10 85 -15 0 -20 -7 -21 -30 0 -16 -1 -36 -2 -42 -2 -15 -32 -18 -32 -3 0 5 -9 14 -21 20 -15 9 -25 8 -42 -3 -12 -8 -57 -18 -101 -22 l-79 -7 5 26 c7 35 -5 33 -36 -9 -31 -40 -26 -59 26 -107 22 -22 27 -32 19 -45 -24 -46 -42 -52 -167 -56 -66 -2 -126 -7 -132 -11 -30 -18 7 -113 48 -123 14 -3 39 -17 56 -30 17 -12 48 -29 69 -36 47 -16 53 -30 21 -45 -37 -17 -134 -3 -184 25 -60 35 -100 26 -149 -32 -37 -45 -59 -53 -92 -35 -12 6 -48 6 -95 1 -81 -9 -116 -28 -116 -63 0 -13 -14 -25 -43 -37 -60 -26 -77 -46 -77 -89 0 -30 5 -40 29 -53 15 -9 34 -31 42 -48 13 -30 41 -41 54 -22 3 5 31 22 63 36 l57 26 41 -20 c60 -30 78 -28 71 8 l-6 29 42 -12 c40 -12 42 -14 39 -48 -3 -31 1 -40 24 -55 16 -10 46 -18 69 -18 49 0 58 -28 10 -33 -16 -2 -35 -8 -41 -13 -6 -5 -24 -6 -41 -3 -20 4 -33 1 -42 -10 -10 -12 -31 -16 -79 -16 -53 0 -70 -4 -88 -21 -22 -21 -25 -21 -48 -5 -35 22 -46 20 -46 -9 0 -18 -5 -25 -19 -25 -10 0 -38 -16 -62 -35 -50 -40 -79 -44 -97 -15 -18 29 -32 25 -32 -10 0 -26 4 -30 26 -30 26 0 26 0 19 -60 -6 -54 -5 -60 12 -60 10 0 23 -10 28 -22 16 -36 40 -29 37 10 -2 29 2 35 28 45 16 6 30 17 30 23 0 6 7 17 15 24 8 7 15 23 15 37 0 20 3 22 19 13 11 -5 31 -10 45 -10 15 0 35 -10 48 -25 26 -30 48 -32 48 -5 0 15 9 22 30 27 17 3 33 10 36 14 3 5 14 9 24 9 15 0 78 24 99 37 2 1 -2 9 -9 18 -7 8 -10 25 -6 39 5 22 10 24 46 19 28 -4 54 0 80 12 33 15 45 16 66 7 24 -12 25 -15 18 -72 -5 -46 -3 -65 9 -84 21 -32 75 -40 102 -16 16 14 30 17 67 13 46 -5 47 -6 41 -34 -5 -25 -2 -29 17 -29 13 0 24 8 27 20 6 23 14 25 32 8 10 -11 17 -8 35 15 24 29 43 29 78 -1 13 -11 28 -13 55 -7 21 4 50 8 64 9 14 0 34 7 43 15 14 11 21 12 40 2 13 -7 34 -11 47 -9 19 2 25 -2 27 -19 4 -26 -16 -30 -50 -12 -16 9 -24 7 -44 -12 -28 -26 -31 -47 -8 -56 10 -4 13 -13 9 -32 -4 -20 0 -32 14 -45 26 -24 47 -15 56 22 9 45 39 68 73 56 34 -12 42 -43 13 -51 -25 -6 -27 -25 -6 -43 29 -24 42 -4 55 84 l13 86 44 16 c42 16 44 19 38 48 -17 86 -18 96 -1 96 8 0 23 -12 33 -27 22 -35 33 -43 61 -43 15 0 26 8 32 25 5 14 16 25 23 25 20 0 47 -33 47 -56 0 -30 29 -64 55 -64 17 0 26 -8 33 -29 6 -16 8 -32 5 -35 -15 -14 -31 -4 -36 24 -8 37 -29 39 -51 5 -9 -14 -25 -25 -36 -25 -10 0 -22 -4 -25 -10 -3 -5 -19 -10 -35 -10 -58 0 -43 -44 16 -46 25 0 43 -8 55 -22 24 -31 29 -28 29 18 0 34 3 40 21 40 11 0 32 -9 46 -20 14 -11 34 -20 44 -20 31 0 22 -20 -15 -35 -41 -17 -52 -31 -37 -49 9 -11 19 -11 57 2 38 13 49 22 64 55 12 27 29 44 51 54 31 13 34 12 51 -9 17 -23 16 -23 -13 -31 -16 -4 -29 -12 -29 -18 0 -16 31 -23 50 -11 24 15 41 -5 33 -37 -6 -25 11 -43 34 -34 16 6 17 37 1 64 -11 18 -10 23 10 36 12 9 22 23 22 33 0 25 10 31 32 19 15 -8 22 -7 32 7 10 13 23 16 58 12 51 -6 78 5 78 31 0 25 11 33 27 20 19 -16 16 -26 -9 -32 l-22 -6 24 -26 c20 -21 30 -24 59 -19 61 10 68 14 67 36 -1 17 10 28 44 45 62 30 90 30 90 -2 0 -21 5 -25 30 -25 22 0 30 -5 30 -18 0 -10 7 -28 16 -40 12 -18 24 -22 52 -20 30 2 39 -1 47 -19 20 -45 39 -26 47 47 2 16 10 26 23 28 11 2 30 13 41 24 15 13 24 16 29 8 8 -14 74 -3 96 16 8 8 21 14 27 14 16 0 35 -38 29 -60 -7 -26 11 -50 38 -50 29 0 30 3 10 34 -15 23 -15 25 12 43 18 13 44 19 73 19 44 -1 45 -1 42 -33 -4 -42 22 -92 50 -93 18 0 38 35 38 66 0 43 26 47 35 4 4 -16 15 -32 26 -35 10 -4 19 -13 19 -20 0 -25 23 -65 37 -65 7 0 13 5 13 10 0 6 39 10 96 10 l95 0 10 30 c6 17 15 30 21 30 6 0 33 -18 61 -41 40 -31 58 -39 78 -35 14 3 31 0 38 -7 8 -8 15 -7 26 4 23 23 8 52 -22 46 -14 -3 -33 3 -46 14 l-22 17 28 11 c44 17 32 44 -23 54 -25 5 -61 10 -80 11 -51 3 -90 32 -90 67 0 24 -4 29 -25 29 -33 0 -33 27 0 42 22 10 29 8 49 -11 14 -13 22 -29 20 -36 -8 -20 26 -46 55 -43 21 2 26 8 26 30 0 34 11 45 20 19 7 -24 19 -26 64 -10 38 13 62 -1 54 -32 -5 -19 -3 -20 33 -13 22 3 43 10 48 14 11 11 -1 30 -19 30 -13 0 -25 21 -25 45 0 20 31 27 50 10 9 -8 30 -15 46 -15 57 0 70 -39 29 -88 -28 -34 -32 -52 -10 -52 8 0 22 -11 31 -25 18 -28 36 -32 53 -11 9 11 44 14 79 7 2 -1 -5 -14 -14 -31 -17 -28 -17 -30 -1 -48 17 -18 16 -20 -5 -35 l-23 -15 23 -24 23 -23 19 23 c12 14 29 22 49 22 28 0 30 2 22 19 -6 10 -8 21 -5 24 8 8 34 -3 34 -14 0 -5 18 -27 40 -49 40 -40 41 -40 95 -34 62 8 69 13 67 60 -1 17 5 37 12 43 18 15 46 3 46 -18 0 -10 6 -25 13 -34 11 -15 15 -15 38 -3 15 7 39 11 53 9 20 -4 33 1 52 22 33 36 45 24 49 -51 2 -33 4 -63 4 -68 1 -4 17 -5 37 -1 43 8 129 -12 163 -37 27 -21 62 -23 79 -6 9 9 12 -1 12 -46 0 -31 -4 -55 -9 -52 -5 3 -12 -2 -15 -11 -7 -18 19 -51 31 -39 12 11 7 171 -6 194 -6 11 -11 58 -10 104 1 69 3 77 10 48 5 -19 7 -51 4 -70 -6 -42 29 -181 38 -156 11 27 8 1254 -3 1261 -5 3 -11 -5 -13 -17 -3 -13 -3 -1 -1 27 2 27 8 51 14 53 6 2 9 37 8 85 l-1 82 -7 -60 c-5 -46 -7 -52 -9 -25 l-3 35 -8 -35 c-16 -75 -21 -80 -62 -65 -44 15 -64 1 -53 -35 5 -17 2 -20 -21 -20 -15 0 -33 -8 -40 -17 -11 -15 -16 -16 -33 -5 -12 6 -28 12 -38 12 -9 0 -24 6 -32 14 -30 27 -67 30 -88 7 l-19 -21 -55 21 c-29 11 -58 25 -63 30 -20 18 -44 9 -55 -21 -9 -27 -13 -30 -38 -24 -38 9 -43 13 -43 29 0 20 -47 30 -65 15 -8 -7 -15 -24 -15 -39 0 -26 -16 -51 -32 -51 -4 0 -19 12 -33 28 -27 29 -54 34 -137 25 -46 -5 -47 -6 -50 -41 -4 -50 -33 -52 -34 -2 -1 80 0 79 -43 73 -23 -3 -41 -1 -45 6 -4 6 -15 11 -25 11 -14 0 -18 -8 -17 -41 1 -52 -19 -62 -28 -14 -6 32 -10 35 -40 35 -19 0 -39 -7 -46 -15 -18 -22 -67 -18 -91 6 -15 15 -30 20 -57 17 -34 -3 -37 -1 -42 27 -5 27 -8 30 -38 27 -29 -3 -32 -1 -32 22 0 14 -4 26 -9 26 -16 0 -30 -26 -25 -47 7 -24 -19 -53 -47 -53 -11 0 -29 -4 -39 -10 -13 -7 -19 -6 -24 6 -4 10 1 18 13 21 26 7 33 29 15 44 -11 9 -18 8 -34 -6 -14 -12 -23 -15 -32 -8 -7 6 -30 16 -50 22 -40 13 -45 20 -28 37 8 8 6 15 -4 23 -21 18 -39 4 -32 -25 5 -17 2 -24 -9 -24 -9 0 -15 9 -15 26 0 25 -2 25 -42 19 -24 -4 -51 -11 -61 -17 -12 -6 -19 -5 -21 4 -3 7 -8 27 -13 43 -12 38 -41 43 -91 17 -32 -16 -53 -18 -152 -15 -63 3 -120 9 -126 14 -7 6 -16 4 -24 -6 -17 -21 -89 -20 -97 1 -3 8 0 27 8 40 11 22 11 27 -1 34 -20 13 -26 12 -40 -5 -16 -19 -40 -19 -68 1 -29 20 -52 12 -45 -15 4 -17 1 -21 -19 -21 -14 0 -28 3 -32 8 -4 4 -22 7 -39 7 -30 0 -32 2 -32 35 0 37 -23 52 -42 28z"/>
 <path d="M8402 1512 c-7 -5 -15 -26 -19 -48 -8 -53 -19 -64 -63 -64 -64 0 -70 -6 -70 -66 0 -37 5 -56 15 -62 19 -10 10 -38 -17 -53 -15 -8 -24 -7 -39 7 -16 14 -24 15 -44 6 -23 -11 -27 -9 -37 13 -9 20 -8 31 3 51 12 23 11 27 -6 40 -36 26 -125 14 -125 -18 0 -4 16 -14 36 -23 38 -16 41 -38 6 -43 -16 -3 -22 -10 -22 -29 0 -24 3 -25 35 -20 19 3 37 1 41 -4 10 -17 -28 -51 -51 -45 -14 4 -29 -4 -51 -30 l-32 -35 22 -24 c31 -34 40 -47 54 -80 13 -29 14 -29 29 -10 8 11 20 18 26 16 7 -2 28 -4 47 -5 28 -1 35 -6 40 -26 5 -20 12 -24 32 -22 15 1 28 -4 31 -12 3 -8 32 -20 64 -27 32 -7 65 -18 74 -26 14 -12 21 -10 48 12 33 29 52 27 44 -5 -6 -22 7 -26 24 -9 8 8 17 8 33 -1 25 -13 34 -8 35 23 0 17 8 23 40 30 22 5 58 10 80 11 23 0 53 9 68 19 18 11 56 19 119 23 51 3 96 8 101 11 4 2 7 15 7 28 0 12 7 25 15 29 10 3 15 19 15 44 0 43 23 72 58 72 15 0 24 8 28 25 5 20 9 23 20 14 8 -6 14 -22 14 -35 0 -15 8 -25 22 -30 45 -14 66 -68 25 -62 -13 1 -36 -7 -51 -20 -16 -12 -35 -22 -42 -22 -23 0 -54 -51 -54 -90 0 -47 22 -70 51 -52 17 11 25 9 50 -9 21 -15 39 -20 59 -15 20 4 35 0 46 -11 24 -25 49 -83 49 -118 0 -34 28 -43 33 -10 2 11 8 30 15 43 8 18 8 28 -1 43 -11 18 -9 19 38 19 62 0 65 -1 62 -22 -4 -21 36 -26 42 -5 24 85 34 107 60 134 33 36 52 40 81 19 19 -14 19 -15 1 -35 -23 -25 -15 -51 16 -52 38 -2 92 2 111 7 11 4 17 0 17 -10 0 -12 10 -16 40 -16 31 0 40 4 40 18 0 33 -14 44 -44 32 -37 -14 -36 -15 -36 28 0 61 -15 73 -99 78 -41 3 -78 7 -82 10 -5 3 -9 18 -9 34 0 21 -6 31 -22 36 -18 5 -29 -1 -54 -30 -34 -40 -45 -43 -64 -21 -7 8 -23 15 -36 15 -14 0 -25 8 -29 20 -7 21 -30 27 -40 10 -3 -5 -16 -10 -29 -10 -32 0 -48 38 -28 68 12 19 13 27 2 47 -17 31 -7 53 27 60 15 4 38 8 51 11 14 3 22 12 22 24 0 16 -7 20 -37 20 -56 0 -78 9 -88 33 -14 31 -70 36 -85 8 -9 -18 -20 -21 -68 -21 -53 0 -61 3 -98 37 -21 21 -52 42 -68 48 -16 5 -34 19 -40 30 -40 73 -46 78 -98 73 -31 -3 -57 -13 -71 -27 -14 -13 -37 -21 -58 -21 -19 0 -42 -7 -53 -15 -13 -10 -25 -11 -43 -4 -13 5 -38 9 -54 9 -23 0 -34 7 -50 35 -21 35 -34 41 -57 27z"/>
 </g>
<g id="layer105" fill="#79a7e6" stroke="none">
 <path d="M11624 2964 c-15 -21 -23 -25 -49 -20 -25 5 -36 1 -55 -19 -14 -15 -35 -25 -51 -25 -15 0 -31 -4 -34 -10 -3 -5 -27 -10 -52 -10 -45 0 -45 0 -39 -30 6 -34 -3 -38 -28 -11 -12 14 -31 19 -74 19 -31 0 -62 -3 -67 -8 -10 -9 -31 -10 -128 -9 -45 0 -111 27 -129 54 -12 16 -9 35 6 35 19 0 36 23 27 38 -11 18 -41 4 -52 -24 -4 -13 -16 -24 -24 -24 -19 0 -67 -29 -78 -47 -12 -19 -31 -16 -52 7 -24 27 -33 25 -37 -7 -3 -27 -5 -27 -65 -26 -47 1 -69 7 -89 22 -28 22 -98 29 -132 13 -9 -5 -32 -16 -50 -25 -19 -9 -40 -17 -47 -17 -21 0 -27 31 -10 57 14 21 14 24 -2 29 -10 3 -26 10 -35 15 -35 18 -67 -18 -53 -61 5 -15 -1 -22 -31 -35 -33 -14 -39 -14 -54 0 -9 8 -22 15 -28 15 -6 0 -23 15 -39 34 -15 19 -40 44 -56 56 l-27 22 -19 -23 c-15 -18 -27 -23 -60 -21 -39 3 -42 1 -47 -28 -7 -30 -7 -31 -53 -24 -29 4 -52 14 -62 27 -14 17 -24 19 -63 14 -25 -4 -60 -13 -76 -22 -32 -17 -100 -20 -100 -5 0 16 -34 28 -63 23 -21 -4 -27 -10 -24 -23 2 -10 1 -24 -3 -31 -13 -19 -79 4 -137 48 -28 22 -49 31 -51 24 -5 -15 -60 -43 -71 -37 -5 3 -6 17 -3 31 3 20 0 25 -16 25 -46 0 -132 -57 -132 -87 0 -7 -16 -21 -36 -30 -28 -14 -39 -15 -54 -5 -24 15 -76 16 -85 2 -3 -5 -24 -10 -45 -10 -30 0 -40 5 -45 20 -10 30 -48 25 -74 -11 -21 -28 -27 -30 -79 -29 -84 1 -156 -10 -165 -26 -6 -10 -13 -11 -25 -5 -9 5 -47 12 -84 16 -37 3 -70 11 -73 16 -10 15 -32 10 -62 -15 -16 -14 -49 -27 -76 -31 -45 -7 -49 -6 -82 29 -34 36 -58 45 -70 26 -3 -5 -15 -10 -26 -10 -10 0 -28 -5 -38 -12 -15 -9 -25 -9 -46 0 -21 10 -32 9 -63 -7 -23 -11 -44 -16 -57 -11 -94 34 -105 34 -105 -7 0 -21 -3 -24 -22 -19 -13 3 -28 6 -34 6 -6 0 -25 14 -42 30 -37 35 -65 38 -89 10 -10 -11 -29 -20 -44 -20 -38 0 -89 28 -89 50 0 34 -20 32 -53 -3 l-32 -35 -45 24 c-25 12 -51 26 -57 30 -20 10 -43 -3 -43 -24 0 -18 -7 -19 -87 -16 -59 3 -92 9 -104 19 -9 9 -23 15 -30 13 -8 -2 -15 7 -17 20 -3 19 -10 22 -44 22 -31 0 -41 -4 -45 -20 -6 -23 -51 -28 -82 -8 -16 10 -25 6 -58 -19 l-38 -31 -35 19 c-46 24 -67 24 -80 -1 -14 -25 -35 -25 -60 0 -23 23 -81 27 -159 11 -77 -16 -91 -14 -91 9 0 24 -9 25 -36 5 -25 -19 -48 -19 -64 0 -20 24 -32 17 -25 -15 8 -35 -8 -41 -25 -10 -6 12 -21 20 -36 20 -16 0 -27 7 -33 23 -5 12 -18 30 -29 41 -21 18 -21 18 -36 -18 -16 -40 -41 -55 -59 -37 -18 18 -45 13 -72 -16 -25 -27 -27 -27 -40 -10 -11 15 -25 18 -78 15 -48 -2 -70 2 -84 13 -33 29 -41 29 -70 3 -24 -22 -34 -25 -73 -20 -25 4 -59 7 -76 9 -17 1 -38 8 -48 16 -13 11 -22 12 -43 2 -21 -10 -29 -9 -43 4 -9 8 -25 13 -34 9 -10 -4 -23 2 -34 16 -25 30 -54 18 -50 -22 3 -34 -19 -55 -45 -45 -9 3 -21 24 -27 46 -6 25 -17 41 -26 41 -15 0 -18 -5 -28 -53 -6 -23 -10 -27 -29 -21 -12 3 -29 13 -38 21 -12 10 -28 12 -59 7 -40 -7 -42 -6 -35 15 6 21 5 22 -47 15 -29 -4 -57 -10 -63 -14 -20 -16 -61 -14 -85 3 -35 24 -47 21 -55 -13 -8 -38 -25 -48 -32 -21 -6 24 -33 29 -33 6 0 -28 -43 -39 -78 -21 -51 26 -117 31 -147 12 -31 -21 -45 -14 -45 24 0 30 -15 40 -59 40 -23 0 -31 -8 -54 -55 -21 -44 -25 -60 -17 -81 9 -23 7 -27 -20 -37 -17 -6 -30 -19 -30 -28 0 -12 -14 -18 -62 -24 -101 -12 -121 -10 -136 14 -17 24 -42 27 -80 7 -39 -20 -106 -14 -143 13 -29 21 -32 22 -49 6 -13 -12 -26 -14 -42 -9 -13 4 -65 8 -115 8 -83 1 -93 -1 -93 -17 0 -14 -5 -17 -22 -11 -42 13 -117 8 -136 -9 -21 -19 -48 -22 -57 -7 -9 14 -26 12 -23 -2 3 -14 -3 -18 -26 -18 -19 0 -30 32 -14 42 8 4 -5 8 -32 8 -25 0 -70 9 -100 20 -75 28 -128 26 -170 -5 -46 -34 -85 -32 -188 11 -45 19 -56 18 -91 -12 l-31 -26 -43 21 c-51 25 -90 27 -107 6 -16 -19 -29 -19 -51 1 -21 19 -41 11 -110 -47 -26 -22 -51 -39 -57 -39 -5 0 -22 10 -37 21 -35 28 -107 42 -140 27 -14 -6 -25 -15 -25 -20 0 -13 -65 -38 -99 -38 -26 0 -31 4 -37 35 -3 19 -11 38 -16 41 -5 3 -6 19 -3 35 7 33 -8 39 -41 14 -10 -8 -27 -15 -38 -15 -10 0 -31 -11 -48 -25 -16 -14 -42 -25 -58 -25 -23 0 -30 -7 -44 -40 -9 -22 -16 -56 -16 -75 0 -36 3 -34 -73 -50 -13 -2 -28 -15 -34 -28 -12 -26 -66 -43 -96 -31 -23 8 -4 42 25 46 15 2 31 18 46 46 l24 42 -24 29 c-13 17 -31 41 -41 55 -15 22 -26 26 -66 26 -40 0 -55 -5 -80 -29 -19 -17 -31 -39 -31 -54 0 -27 -69 -97 -95 -97 -34 0 -96 51 -115 94 -10 24 -24 47 -31 52 -19 11 -149 13 -149 2 0 -5 7 -19 16 -32 10 -16 14 -41 12 -72 -3 -45 -5 -49 -36 -58 -18 -5 -42 -22 -53 -38 -24 -34 -76 -39 -102 -10 -22 24 -22 27 8 66 29 38 31 58 9 80 -22 22 -66 20 -98 -5 -33 -26 -33 -55 0 -90 l26 -27 -44 -41 c-30 -29 -49 -40 -63 -36 -11 3 -36 8 -55 11 -59 9 -62 11 -50 34 17 31 6 37 -52 29 -40 -5 -57 -3 -69 8 -10 8 -26 12 -42 8 -19 -5 -28 -18 -40 -58 l-15 -52 1 55 c1 57 -21 261 -29 269 -7 7 -5 -879 2 -946 6 -53 9 -60 25 -56 17 5 19 -1 19 -41 0 -28 4 -46 12 -46 6 0 19 -7 29 -16 16 -14 21 -14 46 -1 15 8 44 22 65 30 39 17 57 50 38 72 -17 20 -5 32 35 37 38 4 46 -5 18 -21 -16 -9 -17 -13 -4 -43 7 -18 16 -46 18 -61 3 -16 13 -31 22 -34 9 -3 26 -9 38 -15 17 -9 28 -5 58 17 25 20 34 33 29 44 -18 45 -17 47 26 47 31 -1 47 -7 60 -24 13 -16 29 -22 57 -22 21 0 60 -11 87 -24 45 -22 50 -22 80 -8 17 8 40 26 52 40 17 21 24 23 41 14 12 -7 26 -25 31 -41 7 -19 18 -31 34 -33 29 -4 35 -33 13 -58 -10 -11 -15 -26 -12 -35 8 -19 27 -20 27 -1 0 24 22 30 37 10 10 -13 29 -19 66 -22 31 -1 56 -9 63 -17 14 -19 74 -20 74 -2 0 8 -11 20 -25 27 -14 7 -25 20 -25 29 1 14 2 13 11 -2 12 -21 32 -22 49 -2 7 9 20 13 27 10 28 -10 53 14 53 51 0 27 5 36 24 44 13 5 27 18 31 29 6 21 21 26 49 15 14 -5 14 -9 1 -35 -9 -15 -24 -33 -35 -39 -27 -14 -25 -38 3 -49 36 -14 50 -36 38 -59 -8 -15 -6 -23 9 -37 11 -10 20 -26 20 -36 0 -24 20 -35 31 -18 5 8 9 29 9 47 0 25 5 35 24 42 33 12 51 46 30 54 -25 10 -59 7 -72 -6 -17 -17 -33 2 -35 42 -2 41 26 64 46 37 10 -15 18 -16 39 -8 14 5 29 15 33 21 4 6 15 8 26 5 12 -4 35 5 66 25 46 31 47 31 86 16 27 -11 45 -12 58 -6 24 13 62 13 76 -1 9 -9 20 -9 40 -1 15 6 40 13 54 16 35 8 42 29 21 66 -26 47 -82 54 -82 10 0 -19 -29 -36 -41 -23 -4 4 -11 20 -14 34 -5 22 -1 30 24 48 29 21 40 21 103 5 9 -3 27 -21 38 -40 12 -18 27 -34 33 -34 7 0 30 12 51 27 35 23 43 25 69 15 36 -14 58 -1 50 28 -3 11 -1 20 4 20 5 0 15 11 21 26 12 25 12 25 42 8 28 -17 30 -17 48 -1 16 14 21 15 30 4 6 -7 9 -22 6 -34 -9 -34 15 -37 44 -5 34 37 132 68 132 43 0 -5 10 -13 23 -17 12 -3 30 -14 40 -22 17 -15 20 -15 37 8 11 14 21 34 23 45 3 18 5 17 15 -7 14 -35 32 -35 65 -2 25 24 27 25 49 10 12 -9 31 -16 40 -16 10 0 23 -11 28 -24 12 -33 22 -37 54 -21 23 12 28 12 33 0 3 -8 12 -15 20 -15 19 0 52 39 53 62 0 30 18 29 40 -2 12 -16 26 -30 31 -30 5 0 19 16 30 35 22 37 43 45 52 21 9 -24 74 -31 96 -12 22 20 51 11 51 -15 0 -22 37 -49 68 -49 12 0 34 7 47 16 16 10 34 14 51 10 15 -4 32 -2 40 5 11 9 22 9 46 -1 59 -22 78 -33 78 -47 0 -20 -16 -16 -45 13 -30 30 -59 28 -63 -4 -5 -34 17 -55 50 -48 15 3 30 1 33 -4 8 -13 51 -13 77 1 16 9 19 17 14 47 -4 28 -3 32 4 15 12 -28 46 -46 74 -39 17 4 24 -1 33 -24 11 -29 45 -42 57 -21 11 16 76 20 104 5 15 -7 32 -14 38 -14 6 0 17 -7 24 -15 7 -9 21 -13 35 -9 16 4 31 -2 50 -20 44 -41 83 -30 76 22 -1 13 4 25 14 28 23 9 31 -4 17 -27 -17 -26 6 -35 50 -20 25 9 35 8 48 -4 23 -20 45 -19 61 5 8 10 26 22 42 26 22 5 27 3 27 -14 0 -11 7 -25 15 -32 13 -11 21 -8 45 15 l29 28 9 -23 c6 -16 18 -24 38 -26 40 -5 44 -5 84 2 28 4 39 1 54 -15 16 -17 17 -23 6 -36 -22 -26 4 -43 30 -20 22 20 30 10 27 -35 -4 -51 37 -15 82 73 16 31 29 34 38 11 4 -10 -1 -22 -10 -29 -26 -19 -21 -54 8 -65 14 -5 25 -16 25 -25 0 -15 21 -21 33 -9 3 3 1 17 -5 30 -15 32 3 52 50 56 32 3 39 -1 52 -27 18 -36 59 -45 97 -20 19 13 23 22 19 41 -5 17 -2 24 9 24 8 0 23 9 32 20 21 24 65 26 83 5 10 -13 10 -19 -4 -33 -21 -24 -21 -46 1 -38 10 4 25 -2 39 -15 21 -19 24 -20 52 -5 17 9 43 16 58 16 19 0 25 4 20 15 -4 11 3 19 19 25 14 5 28 17 31 25 9 23 33 18 44 -11 15 -39 13 -44 -24 -44 -38 0 -49 -10 -40 -34 8 -20 43 -20 68 -1 11 8 32 15 47 15 16 0 32 7 37 17 6 10 23 17 43 17 29 1 34 5 39 30 5 31 30 49 30 22 0 -26 22 -30 39 -7 16 21 17 21 58 5 28 -11 43 -23 45 -38 2 -13 10 -21 23 -21 26 0 35 52 11 61 -23 9 -20 26 4 19 10 -3 28 -1 39 4 16 9 23 7 34 -9 14 -21 22 -22 122 -18 71 3 115 33 115 79 0 15 5 31 10 34 6 3 10 -1 10 -9 0 -25 30 -46 66 -46 24 0 43 -8 60 -25 14 -14 31 -25 37 -25 19 0 37 21 37 42 0 34 45 22 66 -17 11 -21 26 -35 37 -35 10 0 17 3 15 8 -24 48 -32 62 -40 62 -4 0 -8 7 -8 15 0 19 21 19 64 1 29 -12 36 -12 49 1 8 9 20 12 27 8 9 -6 5 -12 -14 -22 -22 -12 -25 -17 -15 -34 13 -26 40 -21 56 11 13 27 13 27 60 15 47 -11 60 -30 38 -55 -21 -23 -12 -40 22 -40 23 0 25 3 20 33 -9 60 25 79 102 56 7 -2 16 2 18 9 3 6 -2 12 -11 12 -9 0 -16 7 -16 15 0 18 12 19 28 3 9 -9 15 -9 24 0 7 7 39 12 73 12 50 0 64 -4 79 -22 l19 -21 19 26 c35 49 55 52 94 18 19 -17 43 -31 54 -31 10 0 39 18 64 39 77 67 113 64 99 -8 -4 -26 -3 -32 8 -29 8 3 14 15 13 27 0 12 2 20 5 18 3 -2 22 -11 43 -20 28 -13 35 -21 31 -37 -4 -14 0 -20 12 -20 12 0 16 6 12 20 -4 17 0 20 32 20 48 0 87 35 58 51 -9 6 -17 16 -17 24 0 27 22 27 50 0 22 -21 35 -26 54 -21 14 3 26 2 26 -2 0 -5 19 -22 41 -38 l41 -28 19 23 c11 13 19 29 19 37 0 19 9 17 55 -11 22 -14 50 -25 61 -25 25 0 48 24 41 43 -3 9 6 11 35 9 29 -3 48 1 68 16 l28 21 26 -30 c18 -20 35 -29 49 -27 19 3 22 8 19 39 -3 39 15 63 37 50 10 -7 10 -14 -3 -39 -25 -48 -20 -74 19 -105 38 -30 51 -28 65 9 13 32 44 31 59 -2 10 -24 16 -26 50 -20 52 8 126 74 116 105 -10 34 21 26 35 -9 10 -25 17 -29 36 -24 15 4 34 -1 52 -12 32 -21 89 -20 114 3 20 18 48 11 48 -11 0 -27 20 -28 30 -2 11 31 50 36 50 7 0 -10 7 -21 15 -25 18 -7 11 -51 -13 -78 -20 -23 -9 -48 18 -41 44 12 67 82 33 102 -17 9 -17 11 -2 27 12 11 38 17 88 19 39 1 78 8 86 15 9 7 26 9 45 5 22 -5 37 -1 56 14 20 15 31 18 44 11 10 -6 28 -10 40 -10 13 0 28 -13 41 -35 12 -19 27 -35 35 -35 21 0 19 66 -3 78 -14 8 -13 12 10 27 34 22 70 13 86 -21 11 -25 14 -26 59 -19 26 4 56 15 68 26 30 28 72 25 86 -6 6 -14 17 -25 25 -25 20 0 27 28 13 45 -10 13 -8 15 14 15 24 0 26 4 26 39 l0 38 55 1 c57 0 69 -6 59 -31 -4 -12 -11 -13 -35 -4 -24 9 -32 8 -46 -6 -16 -15 -16 -18 2 -37 23 -25 30 -25 55 0 l20 20 21 -35 c34 -57 66 -45 47 19 -10 33 -9 39 10 59 l22 22 25 -30 c13 -17 24 -36 25 -42 0 -7 11 -15 25 -19 18 -4 25 -13 25 -30 0 -17 6 -24 19 -24 11 0 23 5 26 10 3 6 21 10 39 10 19 0 39 7 46 15 7 8 26 15 41 15 39 0 59 43 33 71 -10 11 -14 22 -10 27 10 9 46 -35 46 -58 0 -10 6 -23 14 -29 15 -12 27 -2 39 32 6 15 10 16 27 5 16 -10 24 -10 41 0 19 12 24 11 48 -12 41 -39 100 -31 87 12 -6 18 -1 23 34 33 33 10 51 10 90 0 27 -7 59 -9 72 -5 44 14 146 12 152 -2 7 -19 61 -18 81 2 9 9 14 23 10 31 -4 12 0 14 22 8 16 -3 32 -13 36 -21 9 -15 59 -44 77 -44 6 0 9 12 8 26 -4 34 14 41 27 12 6 -14 20 -24 37 -26 24 -3 26 -6 21 -36 -3 -20 -1 -36 6 -40 17 -11 49 3 55 22 9 27 64 54 86 42 10 -6 27 -10 36 -10 10 0 25 -7 35 -16 24 -22 42 -8 35 27 -3 16 -1 29 3 29 5 0 16 3 25 6 10 4 28 -6 47 -26 22 -21 35 -28 42 -21 7 7 7 15 -1 24 -9 10 -9 16 0 25 30 30 58 -2 68 -78 6 -50 33 -65 37 -20 6 72 6 72 37 66 16 -3 36 -12 44 -19 8 -6 38 -12 65 -12 31 0 52 -5 55 -12 2 -7 14 -13 26 -13 12 0 31 -7 42 -15 10 -8 25 -15 32 -15 17 0 15 45 -3 60 -8 7 -15 19 -15 27 0 25 27 25 56 -2 16 -15 36 -33 45 -41 9 -8 23 -14 33 -14 9 0 27 -12 40 -27 12 -14 27 -23 33 -20 6 4 18 34 27 67 17 61 40 85 30 30 -5 -25 -2 -31 19 -41 20 -9 29 -8 51 6 14 10 26 24 26 31 0 25 28 27 63 5 39 -24 57 -14 57 31 0 24 4 28 27 28 21 0 24 -3 15 -12 -19 -19 -15 -58 6 -58 10 0 24 6 31 13 10 10 16 7 30 -11 15 -21 20 -22 44 -11 24 11 30 10 52 -11 l25 -23 0 21 c0 23 14 29 26 11 3 -6 1 -16 -5 -22 -14 -14 -14 -74 0 -82 6 -4 20 2 32 13 12 11 36 27 54 36 18 9 37 25 43 35 12 24 43 36 90 36 28 0 35 4 35 20 0 26 13 45 31 45 12 0 12 -4 -1 -24 -16 -24 -15 -25 10 -42 24 -15 27 -15 44 0 23 21 28 20 66 -8 20 -16 50 -26 85 -30 30 -3 56 -5 58 -6 2 0 8 -13 13 -30 13 -35 49 -43 49 -10 0 27 29 38 45 17 15 -21 26 -22 19 -3 -3 8 3 17 14 20 51 17 64 76 17 76 -13 0 -26 4 -29 9 -3 5 27 11 67 13 61 4 74 2 87 -13 8 -10 28 -23 43 -28 19 -8 34 -25 48 -56 11 -25 22 -45 25 -45 3 0 15 6 27 14 12 7 41 16 64 19 34 4 42 2 46 -14 7 -27 37 -24 37 3 0 12 8 30 18 41 16 19 16 20 -5 34 -28 19 -30 33 -4 33 35 0 51 -12 51 -36 0 -17 8 -27 26 -34 35 -14 44 -13 44 6 0 11 5 14 16 10 9 -3 18 -6 20 -6 2 0 4 -9 4 -21 0 -11 10 -38 23 -59 16 -29 27 -38 40 -34 9 3 17 1 17 -5 0 -6 12 -11 26 -11 23 0 25 3 20 26 -9 33 11 94 30 94 7 0 16 -11 20 -24 3 -14 13 -27 21 -30 12 -5 13 -16 8 -56 -5 -34 -3 -55 5 -65 19 -23 39 -18 53 13 6 15 23 39 37 55 l25 27 38 -31 c42 -35 70 -29 46 10 -10 15 -11 23 -2 32 13 13 62 -17 63 -39 0 -7 12 -24 26 -37 14 -13 23 -29 19 -34 -9 -16 38 -14 54 2 10 10 15 9 24 -3 7 -9 29 -21 50 -27 36 -11 39 -10 48 13 13 37 12 43 -16 50 -18 4 -25 13 -25 30 0 21 2 23 26 13 15 -5 29 -7 32 -4 9 9 31 -16 26 -30 -4 -10 10 -16 55 -21 34 -4 64 -11 67 -15 3 -5 14 -9 25 -9 18 0 20 3 23 30 1 6 -10 16 -24 23 -14 7 -25 19 -25 27 0 16 40 18 102 5 22 -5 39 -2 55 9 30 22 54 20 71 -5 25 -34 67 -40 100 -12 21 16 41 23 73 23 53 0 60 -21 14 -45 -33 -17 -39 -39 -13 -50 12 -4 24 2 38 19 12 14 26 26 32 26 6 0 16 7 23 15 6 7 33 17 58 20 26 3 54 10 63 14 8 5 23 5 32 0 11 -6 23 -5 36 3 17 10 24 9 44 -10 28 -26 43 -28 56 -5 15 27 81 6 101 -32 8 -16 20 -33 27 -38 7 -4 18 -14 26 -22 8 -8 17 -11 21 -8 9 10 7 55 -2 49 -5 -3 -15 6 -23 20 -9 18 -10 27 -2 32 7 4 13 28 16 52 3 41 4 39 5 -14 2 -69 10 -68 22 1 l8 48 2 -60 c2 -50 4 -55 10 -30 4 17 7 217 7 445 0 228 -3 378 -6 333 -4 -45 -10 -85 -14 -89 -4 -4 -7 2 -7 14 0 12 -4 22 -10 22 -5 0 -10 -7 -10 -16 0 -8 -4 -13 -9 -9 -5 3 -13 -4 -16 -16 -7 -22 -10 -22 -92 2 -39 12 -46 11 -83 -10 -23 -12 -47 -20 -56 -17 -24 9 -64 -12 -64 -34 0 -30 -29 -25 -41 8 -15 39 -59 82 -86 82 -13 0 -29 -10 -39 -25 -16 -24 -17 -25 -45 -8 -39 23 -64 8 -64 -38 0 -32 -2 -34 -35 -32 -48 2 -94 14 -102 27 -4 6 -8 21 -8 34 0 32 -14 27 -33 -13 -18 -38 -46 -46 -67 -20 -7 8 -22 15 -34 15 -11 0 -32 9 -46 20 -14 11 -41 20 -62 20 -26 0 -45 7 -62 25 -15 15 -31 22 -40 19 -19 -7 -21 -25 -4 -42 9 -9 9 -15 -1 -24 -10 -11 -16 -9 -28 10 -10 14 -26 22 -44 22 -15 0 -31 4 -34 10 -3 5 -19 7 -35 3 -17 -3 -30 -2 -30 3 0 5 -4 16 -10 24 -7 12 -12 11 -30 -5 -35 -32 -169 -18 -185 18 -8 18 -21 23 -71 27 -39 3 -69 11 -81 23 -21 18 -35 14 -26 -9 8 -21 -24 -17 -48 7 -16 16 -18 23 -9 35 16 18 6 44 -16 44 -10 0 -31 -4 -48 -9 -115 -35 -115 -35 -136 -16 -13 12 -38 20 -63 20 -61 2 -64 3 -71 20 -10 28 5 45 40 45 27 0 34 4 34 19 0 23 -19 32 -42 19 -15 -7 -18 -4 -18 14 0 32 -10 44 -44 52 -35 9 -66 -16 -66 -51 0 -16 -8 -27 -27 -34 -36 -13 -53 -5 -53 26 0 14 -5 25 -10 25 -11 0 -14 -7 -24 -50 -3 -14 -22 -35 -42 -48 l-36 -23 -39 42 c-37 40 -40 42 -53 24 -19 -27 -42 -6 -49 43 -3 20 -9 53 -14 72 l-9 35 -81 6 c-61 5 -89 12 -112 29 -25 17 -40 21 -69 16 -20 -4 -57 -8 -82 -10 -25 -2 -64 -7 -88 -11 -34 -6 -46 -4 -62 10 -15 14 -23 15 -34 6 -10 -8 -21 -9 -41 -1 -15 6 -31 8 -36 5 -4 -3 -19 1 -33 10 -30 20 -66 12 -95 -21 -26 -30 -39 -30 -51 0 -5 14 -19 30 -31 36 -18 10 -26 8 -50 -9 -36 -27 -71 -27 -95 0 -16 18 -26 20 -72 15 -30 -4 -61 -2 -72 4 -16 8 -26 6 -49 -11 -35 -26 -77 -20 -111 17 -29 30 -41 30 -78 -1 -34 -28 -58 -31 -105 -12 -35 14 -81 15 -110 2 -11 -4 -23 -3 -30 4 -15 15 -42 14 -57 -4 -7 -9 -29 -15 -54 -15 -23 0 -51 -7 -63 -15 -18 -13 -22 -13 -33 0 -13 16 -5 35 15 35 18 0 26 15 19 34 -9 24 -42 19 -60 -10z"/>
 </g>
<g id="layer106" fill="#85a8df" stroke="none">
 <path d="M28 3144 c-5 -4 -8 -17 -8 -29 0 -11 -5 -26 -11 -32 -9 -9 -7 -431 3 -533 1 -14 -2 -64 -6 -112 -7 -75 -6 -88 7 -88 8 0 18 -7 21 -16 5 -12 12 -10 38 15 52 48 76 41 107 -31 17 -41 25 -48 57 -54 27 -5 39 -3 42 6 9 25 40 47 87 61 37 11 53 22 68 47 15 26 25 33 41 29 12 -3 41 -11 65 -17 60 -15 99 -5 120 31 9 16 30 34 49 40 41 14 52 35 52 102 0 41 4 56 16 61 22 8 34 -1 50 -40 21 -50 107 -114 152 -114 43 0 44 1 100 62 31 36 42 56 42 81 0 61 42 76 85 30 44 -48 43 -61 -15 -114 -48 -44 -51 -50 -45 -81 16 -71 23 -81 53 -73 15 4 48 9 74 12 39 4 50 10 70 39 15 22 37 38 61 46 42 13 54 29 71 97 13 55 41 72 106 69 60 -4 59 -24 -5 -58 -99 -53 -79 -120 41 -134 49 -6 62 -4 84 13 21 16 25 26 23 64 l-1 46 41 6 c23 4 60 19 82 33 46 30 62 29 125 -4 25 -13 52 -24 61 -24 14 0 49 23 112 75 9 8 17 10 17 5 0 -6 26 -10 58 -10 31 -1 68 -7 82 -15 14 -8 47 -14 73 -15 42 0 53 4 75 30 33 37 58 38 122 4 58 -30 110 -27 134 7 18 27 88 42 149 34 44 -6 50 -11 64 -43 21 -49 39 -61 98 -62 64 0 112 14 142 42 l23 22 68 -18 c66 -17 131 -15 157 4 24 18 77 20 139 6 86 -20 147 -20 189 0 33 16 36 16 66 -6 33 -25 62 -28 151 -15 42 6 62 16 89 42 19 18 44 33 55 33 39 -1 112 -25 130 -43 23 -22 31 -22 67 5 31 23 31 23 7 29 -13 4 -36 7 -52 8 -16 1 -38 9 -49 19 -13 11 -36 17 -65 17 -44 0 -48 2 -67 39 -11 22 -27 42 -35 44 -8 3 -25 13 -38 23 -30 23 -55 14 -49 -17 5 -27 1 -28 -33 -10 -14 8 -38 12 -57 9 -25 -4 -33 -2 -33 9 0 9 7 21 15 28 22 19 18 32 -7 25 -32 -10 -68 -45 -68 -67 0 -24 -26 -34 -46 -18 -12 11 -22 9 -54 -9 l-39 -22 -12 23 c-26 49 -89 68 -89 27 0 -18 -4 -20 -27 -14 -16 3 -31 12 -35 19 -4 8 -18 11 -33 8 -29 -5 -55 13 -55 39 0 23 -17 34 -34 20 -21 -18 -125 -2 -139 20 -8 12 -23 19 -44 19 -38 0 -53 -18 -30 -35 25 -18 21 -32 -20 -60 -51 -34 -65 -33 -61 8 3 34 -8 38 -57 22 -17 -5 -22 0 -30 26 -9 30 -13 33 -55 34 l-45 2 -2 -39 c-2 -50 -15 -65 -45 -51 -14 6 -37 7 -61 1 -28 -6 -44 -5 -55 4 -13 11 -11 14 18 18 44 7 60 32 37 58 -9 10 -17 26 -17 35 0 13 -10 17 -45 17 -37 0 -45 -3 -45 -18 0 -10 -6 -27 -14 -38 -12 -15 -18 -17 -34 -8 -10 7 -30 10 -45 7 -39 -8 -60 13 -53 52 5 24 1 36 -14 50 -31 28 -55 9 -55 -41 0 -38 -1 -39 -47 -48 -40 -8 -50 -6 -73 13 -32 25 -53 27 -61 6 -10 -25 -24 -17 -24 13 0 51 -61 82 -90 47 -7 -8 -28 -15 -46 -15 -19 0 -34 -4 -34 -10 0 -5 -4 -10 -10 -10 -5 0 -19 -9 -30 -20 -25 -25 -96 -29 -86 -4 3 8 1 24 -4 35 -10 18 -12 18 -38 2 -15 -9 -37 -27 -50 -40 -18 -19 -27 -21 -42 -13 -13 7 -26 7 -38 1 -22 -12 -37 -2 -37 24 0 28 -47 32 -83 7 -15 -11 -52 -22 -82 -25 -30 -3 -65 -9 -76 -12 -12 -4 -25 -2 -28 4 -11 18 -37 13 -72 -14 -38 -29 -47 -30 -79 -9 -23 15 -26 15 -51 -5 -29 -22 -59 -27 -69 -11 -3 6 -21 10 -39 10 -25 0 -35 6 -44 25 -7 14 -12 35 -12 46 0 12 -5 19 -12 16 -7 -2 -13 -17 -13 -33 0 -24 -4 -28 -20 -25 -11 2 -36 3 -57 2 -23 0 -38 5 -42 14 -8 22 -32 18 -74 -10 -20 -14 -49 -25 -64 -25 -15 0 -30 -5 -34 -11 -5 -8 -29 -10 -78 -5 -56 5 -76 12 -96 31 -14 14 -30 25 -36 25 -5 0 -20 8 -33 17 l-24 16 28 23 c33 26 29 56 -7 47 -13 -3 -27 -9 -33 -13 -5 -5 -29 -13 -52 -19 -33 -9 -48 -9 -65 1 -13 6 -36 11 -51 9 -18 -2 -44 7 -69 24 -32 21 -49 26 -82 23 -22 -3 -49 -8 -58 -12 -23 -11 -35 20 -19 46 7 11 10 22 8 25 -7 7 -47 -34 -48 -49 -1 -7 -5 4 -8 25 -3 22 -9 35 -13 31z"/>
 <path d="M13468 2929 c-9 -5 -19 -27 -23 -49 -4 -22 -11 -43 -16 -46 -5 -3 -9 -24 -9 -47 1 -23 -2 -55 -5 -72 -9 -49 13 -76 73 -92 30 -7 65 -22 79 -33 48 -38 118 -21 125 30 3 21 14 28 81 51 l78 27 -3 -36 c-3 -33 -6 -37 -38 -42 -45 -8 -90 -37 -90 -60 0 -24 12 -27 79 -19 106 14 166 10 192 -10 39 -30 65 -33 124 -15 50 16 56 16 72 2 21 -19 120 -53 183 -63 62 -10 145 -31 169 -44 11 -6 49 -11 85 -11 38 0 81 -7 103 -16 21 -9 47 -20 58 -24 11 -4 36 -13 55 -20 49 -18 181 -30 271 -25 66 4 78 2 94 -15 24 -26 64 -37 168 -45 107 -8 133 -16 141 -48 8 -32 75 -64 104 -48 29 15 68 14 86 -4 22 -22 76 -16 76 9 0 6 5 18 10 26 8 13 11 13 22 -2 8 -10 35 -19 70 -23 l57 -7 4 58 c3 49 4 45 5 -26 2 -82 3 -84 17 -56 8 15 15 38 15 50 0 17 2 18 10 6 7 -10 10 73 8 255 -1 155 -5 257 -9 240 -7 -23 -7 -21 -3 10 3 22 8 54 10 70 4 30 4 30 -8 5 -11 -25 -11 -25 -15 -2 -3 12 -9 22 -15 22 -8 0 -9 -34 -5 -107 3 -62 2 -97 -3 -83 -4 14 -8 48 -9 77 -1 46 -3 51 -21 46 -14 -4 -22 2 -30 21 -5 14 -14 26 -20 26 -13 0 -13 -4 4 -45 8 -18 12 -36 8 -39 -12 -13 -29 -5 -40 19 -14 31 -30 32 -41 1 -16 -40 -81 -52 -81 -14 0 20 -1 21 -20 3 -25 -23 -25 -35 -1 -35 17 0 31 -18 31 -41 0 -4 -14 -6 -31 -2 -22 4 -38 0 -61 -17 l-30 -22 -22 21 c-28 27 -50 27 -77 0 -28 -28 -64 -19 -74 18 -10 41 -24 53 -59 53 -44 0 -61 -18 -39 -42 13 -15 15 -23 6 -36 -6 -9 -17 -15 -25 -13 -28 9 -124 8 -142 -1 -22 -12 -126 -1 -126 14 0 6 12 7 30 3 23 -5 32 -3 36 10 9 21 -14 37 -41 29 -11 -3 -30 -5 -43 -5 -17 1 -27 -8 -38 -34 -15 -37 -27 -41 -68 -25 -32 12 -33 33 -2 53 27 18 41 57 21 57 -7 0 -15 -9 -18 -20 -4 -15 -14 -20 -36 -20 -24 0 -34 -6 -40 -22 -7 -19 -16 -23 -55 -24 -41 -1 -49 2 -58 21 -14 30 -47 38 -76 19 -19 -12 -22 -21 -17 -45 4 -18 3 -29 -4 -29 -6 0 -11 15 -11 34 0 18 -9 45 -20 59 -17 22 -30 27 -78 29 -43 2 -57 7 -57 18 0 11 10 14 39 12 22 -2 49 1 60 6 12 6 29 13 39 16 21 7 33 34 21 46 -5 4 -24 11 -42 15 -30 6 -33 4 -43 -24 -13 -37 -20 -38 -45 -10 -10 12 -32 28 -49 36 -16 7 -38 19 -48 26 -15 10 -21 9 -32 -7 -8 -10 -16 -24 -18 -30 -3 -7 -9 -7 -20 3 -14 11 -26 11 -61 2 -69 -17 -96 -15 -96 9 0 26 -36 46 -56 29 -12 -10 -19 -8 -39 11 -22 20 -27 21 -54 10 -19 -7 -45 -10 -68 -5 -21 3 -69 9 -108 11 -56 4 -74 10 -92 29 -20 21 -25 22 -60 10 -21 -7 -42 -22 -48 -34 -13 -27 -41 -23 -37 6 4 28 -24 37 -45 14 -48 -50 -94 -46 -75 7 12 36 -2 57 -30 41z"/>
 </g>
<g id="layer107" fill="#8cb6ef" stroke="none">
 <path d="M80 3700 c21 -7 12 -15 -12 -11 -5 0 -8 -7 -9 -16 0 -13 -3 -11 -11 7 -9 21 -12 22 -15 7 -4 -14 -8 -16 -19 -6 -12 10 -14 -54 -14 -457 0 -286 4 -475 10 -484 8 -12 10 -11 10 7 0 12 6 26 14 30 8 4 16 24 19 43 2 23 4 13 5 -26 2 -65 19 -87 48 -63 10 8 21 7 44 -2 31 -15 38 -25 19 -31 -15 -5 9 -45 31 -53 14 -6 42 19 53 48 3 7 18 -3 39 -27 29 -33 39 -38 60 -33 25 7 27 4 39 -43 16 -61 30 -76 58 -60 15 8 27 8 41 0 15 -8 32 -6 72 11 29 12 60 28 69 36 13 11 18 10 34 -6 14 -16 28 -20 74 -17 66 4 111 -15 111 -45 0 -16 -4 -19 -17 -13 -36 15 -143 -1 -143 -22 0 -14 38 -34 65 -34 7 0 16 11 19 25 5 21 10 24 26 15 27 -15 66 -12 80 5 18 22 35 18 48 -10 21 -45 42 -25 42 40 0 42 19 59 54 45 19 -7 26 -17 27 -37 1 -16 2 -37 3 -48 1 -28 81 -71 101 -55 22 18 18 47 -7 64 -12 9 -19 19 -15 22 4 4 13 1 21 -5 8 -7 32 -11 53 -9 29 2 41 9 50 28 7 14 23 36 37 49 24 23 27 23 44 8 25 -23 42 -21 42 5 0 12 7 29 16 39 9 10 20 33 24 51 7 33 7 33 15 -16 7 -43 5 -52 -11 -65 -15 -12 -20 -28 -19 -64 1 -58 12 -69 61 -65 34 3 43 9 70 51 17 26 33 50 36 52 3 3 40 -1 84 -9 86 -15 130 -6 128 27 -1 9 2 17 6 17 15 0 31 -29 32 -59 1 -27 5 -31 30 -31 30 0 35 9 17 27 -8 8 -8 16 0 30 6 10 11 12 11 6 0 -18 29 -16 36 2 9 23 18 18 31 -15 13 -35 32 -38 58 -10 10 11 26 20 36 20 10 0 24 7 33 15 18 19 46 19 71 1 19 -14 19 -15 1 -35 -15 -16 -17 -24 -8 -33 16 -16 42 8 42 38 0 15 6 24 15 24 8 0 15 -7 15 -15 0 -18 11 -19 61 -4 35 11 41 10 73 -15 44 -33 54 -33 62 2 11 45 60 61 66 21 2 -12 13 -28 25 -36 21 -14 24 -13 44 21 17 29 26 35 41 30 11 -3 27 -7 34 -8 8 -1 20 -8 26 -14 29 -29 104 3 93 39 -8 24 -1 24 34 -2 36 -26 55 -17 47 22 -3 16 -1 29 4 29 12 0 24 -21 25 -45 0 -28 88 -43 112 -20 22 23 47 14 51 -17 4 -34 29 -42 83 -28 22 6 48 9 56 5 20 -7 43 12 43 37 0 17 2 18 16 8 32 -27 37 -50 18 -85 -15 -28 -16 -37 -4 -64 14 -36 21 -38 44 -13 13 16 24 18 64 11 26 -4 51 -3 56 1 4 4 -2 22 -15 39 -18 25 -30 31 -60 31 -21 0 -40 4 -44 9 -11 18 37 33 89 28 28 -2 61 0 74 6 16 8 26 8 30 0 4 -5 26 -13 48 -16 39 -6 42 -5 48 18 7 28 27 32 46 10 14 -17 56 -20 65 -5 9 15 68 0 87 -22 15 -17 22 -18 58 -8 22 6 45 8 50 5 6 -4 24 1 42 9 40 20 45 20 51 -3 4 -17 14 -18 103 -17 98 1 99 1 112 -27 7 -15 20 -27 28 -27 22 0 64 30 64 46 0 7 11 16 25 20 13 3 27 15 30 25 4 10 10 19 15 19 16 0 22 -21 9 -36 -19 -23 1 -35 41 -24 37 11 69 5 85 -16 8 -11 20 -11 68 1 33 7 65 11 73 8 8 -3 26 2 40 12 31 20 51 14 56 -16 4 -29 24 -36 30 -11 8 29 67 35 95 10 22 -20 53 -19 53 2 0 13 67 13 75 1 3 -6 -2 -14 -11 -19 -24 -14 -13 -46 17 -50 17 -2 38 6 59 24 31 27 33 27 46 9 13 -18 14 -18 34 0 20 18 21 18 43 -3 32 -30 45 -27 49 10 5 50 36 51 40 1 2 -30 7 -38 23 -38 13 0 21 8 23 23 4 27 23 28 47 2 23 -25 45 -26 45 -2 0 26 25 58 34 44 4 -6 2 -20 -3 -31 -8 -14 -6 -22 8 -35 24 -22 33 -20 63 14 24 27 29 29 52 19 22 -10 29 -9 45 5 22 20 36 7 36 -34 0 -16 6 -26 19 -28 29 -6 42 14 26 42 -23 44 13 84 49 52 22 -20 77 -21 115 -1 29 16 66 20 66 8 0 -3 -7 -14 -16 -24 -9 -10 -13 -22 -10 -27 9 -15 86 -2 122 19 34 21 69 25 79 9 3 -5 17 -10 31 -10 17 0 27 -8 34 -25 14 -37 28 -31 50 20 20 47 34 56 44 30 3 -8 17 -15 31 -15 22 0 25 4 25 34 0 19 4 37 9 40 11 7 48 -34 53 -59 2 -13 12 -21 31 -23 25 -3 27 -1 27 31 0 34 13 48 36 40 7 -2 10 -20 7 -47 -7 -55 27 -115 65 -116 17 0 15 27 -3 34 -19 7 -19 45 1 84 14 29 44 44 44 23 0 -5 7 -17 16 -26 13 -13 14 -21 6 -40 -18 -39 23 -52 46 -14 10 16 17 18 25 10 6 -6 25 -11 43 -11 17 0 37 -7 44 -15 19 -23 40 -18 40 10 0 32 24 81 43 88 17 6 107 -22 107 -34 0 -4 -4 -11 -10 -14 -6 -3 -10 -18 -10 -31 0 -37 24 -24 28 14 3 26 9 33 30 37 15 3 39 12 55 20 20 10 46 13 93 8 56 -5 71 -3 105 16 22 13 46 20 54 18 13 -6 38 -44 51 -79 7 -20 14 -21 69 -8 31 7 51 6 87 -7 47 -16 48 -16 71 5 13 12 31 22 40 22 9 0 19 5 22 10 11 18 39 10 75 -20 41 -35 50 -37 50 -10 0 12 11 32 24 45 22 22 26 23 62 10 21 -7 43 -23 48 -35 7 -16 15 -20 33 -16 13 3 34 9 48 12 15 4 25 2 25 -5 0 -18 89 -14 96 4 12 30 39 35 78 15 21 -10 44 -16 51 -14 8 3 27 -4 44 -17 34 -25 118 -37 148 -20 17 8 26 7 46 -9 14 -11 30 -20 36 -20 20 0 11 28 -16 48 -27 20 -25 42 5 42 10 0 26 6 37 13 51 35 86 28 133 -24 l27 -30 37 31 c37 30 37 31 50 10 14 -21 43 -27 53 -10 3 5 26 10 50 10 33 0 47 5 54 19 16 28 65 43 88 26 12 -9 32 -12 61 -8 34 5 45 2 56 -12 12 -17 14 -17 44 5 16 12 43 22 59 22 15 0 36 7 46 16 15 14 19 13 38 -4 14 -12 24 -15 34 -9 7 6 27 21 44 33 l31 24 10 -29 c14 -38 64 -61 94 -43 14 9 21 10 24 1 5 -16 33 -14 53 5 13 12 22 13 37 5 11 -6 34 -8 52 -5 26 6 32 3 37 -15 6 -24 18 -27 26 -7 3 8 -3 22 -14 32 -19 17 -26 54 -11 54 12 0 52 -44 52 -57 0 -13 36 -27 49 -19 16 10 19 60 5 82 -20 30 -8 54 26 54 37 0 45 -14 25 -44 -13 -20 -14 -32 -5 -64 5 -22 16 -42 24 -45 7 -3 42 0 77 7 48 9 72 20 97 43 l32 31 -32 26 -33 25 37 16 c49 20 56 19 60 -7 2 -15 16 -29 41 -41 52 -24 48 -41 -8 -34 -24 4 -46 3 -49 -2 -7 -10 50 -91 64 -91 13 0 30 34 30 59 0 29 25 26 47 -5 18 -24 20 -25 48 -10 17 9 36 16 43 16 7 0 16 11 21 23 8 20 15 23 43 20 65 -8 79 -14 88 -39 10 -24 14 -26 63 -22 28 2 60 8 69 12 14 6 20 2 28 -18 12 -31 40 -25 40 9 0 32 11 37 49 24 22 -8 35 -8 44 0 7 5 22 8 33 5 12 -3 27 3 38 15 11 12 31 21 46 21 15 0 33 7 40 15 17 20 33 19 55 -5 10 -11 26 -20 37 -20 23 0 24 -29 1 -45 -19 -14 -12 -42 13 -52 10 -3 26 5 43 23 99 103 127 118 164 89 15 -10 17 -21 12 -44 -9 -40 11 -41 42 -3 l23 27 17 -21 c10 -11 41 -32 69 -47 l52 -26 40 30 c22 16 43 36 46 44 3 9 18 15 35 15 16 0 33 5 36 11 4 6 22 8 46 4 38 -7 39 -6 39 23 0 27 5 32 44 47 45 17 80 17 79 0 0 -5 -9 -14 -21 -19 -19 -9 -52 -64 -52 -86 0 -15 26 -12 40 6 8 8 29 22 48 30 20 8 42 23 49 34 8 11 22 20 31 20 9 0 26 12 37 26 18 23 24 25 42 15 12 -6 35 -11 52 -11 38 0 46 -13 22 -34 -16 -14 -23 -15 -39 -5 -22 14 -56 5 -50 -14 3 -6 13 -14 24 -16 10 -1 27 -10 37 -19 16 -14 19 -13 43 9 17 16 23 30 20 45 -8 31 21 39 61 17 37 -20 38 -36 4 -41 -33 -5 -38 -32 -11 -54 20 -16 22 -22 12 -39 -15 -24 -15 -29 2 -29 8 0 17 7 20 15 4 12 10 13 25 6 21 -12 31 -5 31 20 0 12 6 16 21 12 17 -5 20 -2 17 13 -2 11 -13 20 -26 22 -12 2 -27 12 -32 22 -8 15 -6 21 9 30 27 14 47 13 84 -6 31 -17 31 -16 57 15 15 17 30 31 35 31 5 0 17 8 28 18 19 17 19 16 12 -16 -8 -38 13 -52 50 -32 22 12 26 10 50 -19 28 -33 68 -41 82 -17 4 7 27 17 51 21 38 6 42 5 42 -14 0 -14 -9 -25 -25 -31 -33 -13 -32 -30 3 -30 15 0 45 -5 66 -11 38 -10 40 -10 72 27 26 29 31 41 24 55 -14 25 -13 29 9 29 10 0 26 12 35 26 26 38 40 24 46 -42 5 -61 18 -75 50 -55 12 8 12 12 -3 29 -21 23 -22 42 -2 42 8 0 23 5 33 11 14 9 26 8 50 -5 18 -9 32 -22 32 -30 0 -7 7 -27 16 -45 17 -34 37 -37 43 -5 4 23 19 34 48 34 20 0 22 4 17 30 -6 26 -4 30 15 30 11 0 21 -5 21 -10 0 -18 43 -28 64 -16 14 8 20 8 23 -2 3 -7 16 -23 28 -35 13 -12 25 -37 27 -55 l3 -33 33 31 c37 34 50 37 58 15 9 -22 57 -18 88 6 16 13 43 22 68 23 36 1 43 -3 64 -34 15 -21 24 -49 24 -72 0 -28 6 -42 26 -57 50 -39 114 -19 114 35 0 19 5 24 27 24 14 0 35 7 45 17 17 15 18 15 18 -5 0 -11 -4 -24 -10 -27 -22 -13 -10 -43 23 -56 17 -7 35 -14 39 -16 3 -2 8 6 10 19 2 14 13 26 32 33 25 8 31 7 44 -13 16 -24 58 -30 65 -9 3 9 11 9 36 0 24 -9 39 -9 56 -1 20 9 33 5 83 -26 33 -20 67 -36 76 -36 12 0 16 -9 16 -35 0 -28 4 -35 19 -35 24 0 32 12 33 50 1 35 17 38 43 10 18 -20 18 -20 41 5 16 17 34 25 57 25 38 0 57 -15 57 -46 0 -16 7 -24 22 -26 12 -2 28 -13 34 -26 18 -36 24 -38 45 -12 l19 25 25 -28 c14 -15 25 -35 25 -43 0 -9 11 -14 35 -14 36 0 46 15 23 38 -8 8 -5 14 16 22 30 11 46 6 46 -15 0 -11 13 -13 55 -10 31 2 60 7 65 10 14 8 90 -6 104 -20 19 -19 62 -7 75 21 10 23 48 33 64 17 11 -10 -13 -33 -34 -33 -27 0 -24 -14 7 -30 22 -12 31 -12 72 5 68 26 116 30 144 11 12 -9 30 -16 39 -16 9 0 20 -10 25 -21 9 -19 12 -20 25 -7 8 9 29 23 47 32 28 14 32 22 32 56 0 30 6 43 26 59 32 25 50 27 62 4 15 -26 46 -9 38 22 -5 20 -2 26 19 31 36 9 75 -3 76 -24 0 -10 5 -4 12 13 l11 30 7 -30 7 -30 2 35 c1 29 3 32 10 15 5 -12 9 159 9 405 0 375 -1 423 -14 406 -22 -30 -52 -30 -71 -1 -20 31 -48 32 -68 3 -14 -20 -19 -21 -49 -10 -47 17 -77 15 -122 -8 -33 -17 -53 -20 -113 -15 -81 5 -108 16 -117 45 -4 12 -21 24 -48 31 -23 6 -49 17 -58 25 -9 8 -33 18 -53 21 -30 5 -41 2 -57 -16 -11 -11 -22 -21 -25 -21 -3 0 -22 18 -43 40 -36 38 -73 51 -86 30 -12 -19 -63 -11 -70 10 -8 25 -116 100 -144 100 -11 0 -23 -5 -26 -10 -7 -11 -54 -3 -70 11 -16 16 -43 10 -62 -14 l-18 -24 -18 23 c-12 17 -32 25 -67 30 -45 6 -54 12 -87 55 -37 49 -50 57 -68 40 -22 -19 -78 -31 -92 -20 -7 6 -26 9 -43 6 -17 -4 -40 0 -57 8 -15 8 -41 15 -57 15 -16 0 -38 8 -49 17 -18 17 -19 17 -32 0 -18 -25 -71 -23 -78 3 -7 26 -48 26 -65 0 -7 -11 -23 -20 -36 -20 -21 0 -24 6 -28 40 -3 37 -2 39 27 43 16 3 4 3 -29 2 -32 -2 -63 -8 -68 -13 -7 -7 -16 -7 -29 1 -27 17 -74 -2 -74 -31 0 -12 -5 -22 -10 -21 -21 0 -61 11 -82 21 -18 9 -27 8 -41 -5 -28 -25 -76 -32 -103 -14 -36 23 -87 31 -104 17 -12 -10 -20 -9 -40 4 -20 13 -37 15 -71 10 -31 -4 -49 -2 -61 7 -14 12 -10 15 38 20 l54 6 -51 1 c-44 2 -55 -2 -91 -33 -46 -39 -59 -42 -85 -18 -14 12 -23 14 -41 6 -23 -10 -139 -9 -157 2 -5 3 -35 10 -66 15 -52 9 -58 8 -74 -13 -19 -24 -9 -26 -112 24 -10 5 -21 3 -29 -7 -7 -8 -25 -22 -40 -29 -28 -15 -57 -10 -127 24 -26 13 -36 13 -52 3 -16 -10 -24 -10 -40 0 -18 11 -23 10 -39 -11 -15 -20 -21 -22 -39 -12 -25 13 -72 15 -72 2 0 -15 -62 -33 -74 -21 -5 5 -22 10 -37 10 -22 0 -26 4 -22 20 7 28 -18 35 -70 20 -23 -7 -55 -12 -71 -11 -19 0 -41 -10 -64 -30 -24 -21 -41 -29 -56 -25 -11 3 -26 6 -33 6 -6 0 -13 12 -15 28 -4 32 -31 37 -36 7 -2 -11 -9 -26 -14 -32 -14 -18 -58 -16 -78 2 -16 14 -21 14 -51 -3 -68 -39 -166 -59 -193 -39 -15 11 -16 18 -7 34 8 16 7 24 -3 32 -14 12 -46 5 -46 -10 0 -5 -21 -14 -46 -20 -25 -7 -59 -23 -76 -37 -30 -25 -31 -25 -60 -9 -16 9 -40 17 -53 17 -16 0 -27 10 -39 35 -9 19 -20 36 -24 39 -11 7 -27 -6 -35 -26 -3 -10 -15 -18 -26 -18 -11 0 -41 -7 -66 -15 -38 -13 -55 -14 -106 -4 -48 10 -65 9 -85 -1 -22 -12 -26 -11 -40 8 -18 26 -37 28 -54 7 -16 -19 -116 -17 -132 2 -14 18 -47 16 -54 -2 -4 -8 -1 -21 4 -28 9 -10 -1 -13 -44 -13 -49 -1 -57 2 -66 22 -11 24 -51 34 -62 16 -3 -5 -28 -9 -56 -10 -62 -1 -90 -9 -90 -26 0 -8 -13 -19 -29 -26 -35 -14 -62 -3 -87 35 -22 34 -46 33 -42 -2 4 -38 -28 -44 -42 -9 -12 32 -18 32 -60 1 -44 -32 -84 -32 -133 2 -28 19 -53 28 -83 28 -24 1 -50 7 -56 13 -17 17 -36 15 -68 -8 -24 -17 -29 -18 -46 -5 -28 21 -87 19 -109 -5 -13 -14 -22 -17 -36 -10 -9 6 -51 8 -92 5 -68 -5 -75 -3 -80 15 -9 35 -24 22 -30 -26 -2 -26 -10 -50 -17 -54 -15 -9 -110 18 -133 39 -17 14 -20 14 -32 -2 -16 -23 -24 -22 -56 9 -18 17 -34 24 -45 20 -15 -6 -16 -8 0 -24 25 -28 20 -34 -22 -27 -29 5 -42 2 -52 -9 -22 -28 -40 -19 -40 19 0 46 -23 55 -56 24 -17 -16 -35 -23 -54 -21 -15 2 -31 -1 -35 -7 -3 -6 -24 -11 -46 -11 -22 0 -52 -6 -68 -14 -20 -11 -38 -12 -67 -6 -21 5 -49 7 -60 4 -12 -3 -37 2 -55 11 -32 17 -34 17 -85 -11 -50 -27 -53 -28 -72 -11 -23 21 -38 22 -50 1 -7 -13 -16 -13 -53 -5 -24 5 -60 12 -79 15 -24 4 -39 13 -45 29 -13 28 -48 29 -53 2 -8 -40 -30 -53 -79 -47 -56 6 -110 -19 -120 -56 -6 -24 -7 -24 -19 -7 -8 11 -14 26 -14 36 0 23 -22 30 -76 22 -38 -5 -48 -3 -56 11 -8 14 -18 16 -48 11 -22 -4 -41 -2 -44 4 -9 13 -74 8 -105 -9 -24 -12 -39 -12 -175 10 -64 10 -70 9 -83 -10 -16 -23 -51 -26 -78 -6 -17 12 -17 16 -5 30 11 15 11 19 -1 31 -12 12 -19 12 -48 -2 -18 -9 -38 -27 -44 -40 -5 -13 -13 -23 -17 -23 -3 0 -22 16 -41 36 -30 31 -38 35 -69 29 -19 -3 -48 -6 -63 -6 -16 0 -39 -7 -52 -15 -18 -12 -28 -13 -44 -5 -20 11 -51 5 -51 -10 0 -14 -22 -10 -41 7 -17 15 -20 15 -44 0 -21 -14 -29 -15 -40 -6 -11 9 -26 9 -64 0 -38 -9 -63 -9 -101 -1 -28 6 -73 11 -100 11 -45 0 -50 3 -69 36 -18 30 -24 34 -36 24 -8 -7 -15 -21 -15 -31 0 -28 -18 -32 -46 -10 -32 25 -46 26 -85 6 -27 -14 -32 -14 -51 0 -32 22 -94 19 -118 -5 -25 -25 -24 -25 -53 4 -32 32 -111 44 -137 21 -23 -21 -76 -12 -90 16 -15 27 -26 24 -39 -11 l-10 -30 -25 25 c-20 20 -30 24 -44 16 -10 -6 -29 -7 -40 -4 -12 3 -29 0 -37 -7 -13 -10 -19 -10 -33 4 -23 20 -51 21 -58 1 -7 -17 -59 -21 -69 -5 -11 18 -54 11 -65 -10 -14 -27 -28 -25 -42 6 -11 24 -16 26 -57 21 -34 -4 -48 -1 -57 11 -10 14 -13 13 -23 -6 -10 -18 -20 -22 -66 -22 -29 0 -56 4 -59 9 -9 14 -127 22 -142 10 -13 -11 -57 -8 -100 6 -16 5 -23 2 -27 -14 -3 -14 -13 -21 -30 -21 -13 0 -30 -7 -37 -15 -9 -11 -22 -14 -41 -10 -15 4 -36 2 -46 -3 -13 -7 -29 -6 -52 4 -18 8 -44 14 -58 14 -13 0 -21 4 -18 10 9 14 -13 50 -30 50 -17 0 -21 -45 -5 -55 8 -5 7 -11 -1 -21 -13 -16 -45 -19 -54 -4 -8 13 -48 13 -79 -2 -19 -8 -32 -8 -48 0 -23 11 -23 11 4 11 28 1 72 45 65 65 -7 20 -39 18 -68 -3 -15 -12 -33 -21 -39 -21 -14 0 -13 -23 2 -38 9 -9 8 -12 -4 -12 -9 0 -20 5 -23 10 -8 13 -72 40 -93 40 -9 0 -25 -9 -37 -20 -20 -19 -23 -19 -35 -5 -11 14 -10 17 8 22 29 7 28 23 0 23 -13 1 -40 7 -61 14 -20 8 -40 10 -43 5 -9 -14 -34 -10 -34 5 0 25 -19 29 -47 10 -16 -10 -45 -17 -72 -16 -52 1 -131 -18 -131 -31 0 -5 -26 -6 -58 -2 -47 5 -61 3 -71 -9 -20 -24 -31 -19 -31 12 0 43 -11 72 -27 72 -8 0 -12 -4 -9 -8 3 -5 -8 -21 -23 -36 -23 -22 -33 -26 -47 -18 -29 15 -120 22 -131 11 -7 -7 -17 -7 -31 2 -17 11 -30 11 -71 0 -32 -8 -56 -9 -68 -3 -34 18 -111 20 -133 5 -16 -12 -38 -14 -93 -9 -166 14 -192 19 -215 37 -19 14 -29 16 -44 8 -10 -6 -31 -8 -47 -4 -17 4 -44 -2 -75 -16 -28 -12 -57 -18 -71 -15 -13 3 -54 2 -92 -4 -63 -9 -69 -8 -84 11 -21 28 -87 40 -135 23 -28 -9 -50 -10 -88 -3 -41 9 -59 8 -96 -6 -81 -30 -88 -30 -96 -1 -9 36 -42 35 -46 -1 -4 -33 -39 -43 -66 -20 -25 21 -79 29 -102 15 -15 -10 -27 -10 -53 0 -53 19 -126 15 -183 -12 -47 -22 -53 -22 -85 -9 -30 12 -35 12 -45 -2 -9 -12 -23 -14 -67 -9 -33 4 -58 12 -61 20 -9 23 -42 16 -61 -12 -14 -21 -21 -24 -43 -18 -15 4 -44 6 -66 5 -21 -1 -49 5 -62 14 -30 20 -34 19 -34 -5 0 -27 -43 -48 -64 -31 -10 8 -27 10 -47 6 -21 -5 -34 -3 -40 6 -10 17 -82 38 -112 32 -14 -3 -40 2 -58 10 -19 8 -43 18 -54 22 -13 5 -15 9 -7 12 25 9 0 23 -41 22 -36 -1 -38 -2 -17 -9z"/>
 </g>
<g id="layer108" fill="#a2bfef" stroke="none">
 <path d="M1 3682 c-1 -55 2 -69 14 -69 8 0 15 5 15 11 1 25 20 -21 20 -47 0 -16 3 -26 8 -23 10 6 112 -38 122 -54 5 -8 37 -18 72 -23 136 -22 239 -7 282 40 22 23 28 25 53 15 15 -6 51 -13 78 -16 28 -3 70 -8 95 -12 34 -4 56 -1 85 12 26 12 64 18 108 19 65 0 68 1 102 38 35 38 37 39 93 34 31 -3 102 -13 157 -22 55 -9 107 -16 115 -16 53 0 149 20 173 35 23 15 41 18 104 14 42 -3 91 -1 109 5 30 9 36 7 64 -23 27 -28 34 -31 68 -26 20 3 73 10 117 14 44 5 98 18 120 28 34 17 50 19 105 12 36 -4 83 -9 105 -12 22 -2 66 -15 97 -29 55 -24 88 -26 115 -5 22 18 79 29 168 34 85 4 91 6 113 34 30 38 42 38 79 -5 32 -36 63 -44 81 -22 17 20 19 81 3 93 -21 16 103 28 212 21 56 -4 68 -3 37 2 -25 4 -775 9 -1666 10 l-1622 2 -1 -69z"/>
 <path d="M14050 3738 c87 -10 141 -27 87 -28 l-29 0 30 -25 c22 -18 40 -24 73 -24 24 1 49 0 54 -2 6 -1 29 3 52 11 23 7 47 10 55 6 109 -58 110 -59 129 -121 20 -64 47 -95 84 -95 13 0 37 -11 53 -25 37 -31 38 -31 81 -1 20 14 56 30 81 37 43 11 49 10 123 -25 54 -26 77 -43 77 -55 0 -35 24 -42 127 -39 91 2 124 -3 183 -32 8 -4 17 -16 18 -26 5 -24 30 -44 57 -44 12 0 45 -22 75 -50 52 -49 55 -50 99 -44 25 3 85 7 133 7 75 2 90 -1 117 -20 25 -19 34 -21 55 -12 28 13 82 -5 89 -31 3 -8 3 -1 2 17 -2 17 3 40 10 50 14 17 14 17 15 -2 0 -17 2 -17 10 -5 6 9 9 122 8 275 0 143 -3 250 -5 237 -2 -12 -8 -20 -13 -17 -4 3 -6 15 -2 27 3 14 2 19 -6 14 -7 -4 -12 -1 -12 6 0 9 -3 9 -10 -2 -8 -13 -10 -12 -10 3 0 22 -17 22 -58 -3 -33 -20 -93 -30 -62 -10 13 8 12 10 -3 10 -10 0 -15 5 -12 10 3 6 -2 10 -12 10 -26 0 -107 -30 -114 -42 -4 -6 -15 -2 -28 11 -12 12 -34 21 -50 21 -16 0 -31 6 -35 15 -5 15 -47 21 -60 8 -4 -4 8 -15 26 -25 l33 -17 -55 1 c-50 1 -52 1 -20 8 33 7 31 7 -17 9 -29 0 -53 6 -53 11 0 20 -48 11 -53 -10 -3 -13 -13 -20 -29 -19 l-23 2 23 4 c22 4 23 5 5 18 -16 12 -15 14 17 23 23 6 -207 9 -680 9 -506 1 -690 -2 -630 -9z"/>
 </g>
<g id="layer109" fill="#9bc2f9" stroke="none">
 <path d="M2455 3740 c11 -5 49 -10 85 -11 49 -2 56 -4 30 -8 -34 -5 -33 -5 15 -11 l50 -6 -50 -8 c-35 -6 -50 -6 -53 3 -2 7 -26 10 -60 10 -51 -1 -53 -2 -22 -9 l35 -7 -40 -2 c-22 -1 -48 -8 -58 -16 -14 -10 -26 -11 -48 -3 -17 6 -27 13 -24 16 3 4 -9 12 -27 18 l-33 12 55 3 c40 1 25 4 -55 11 -79 6 -117 5 -138 -3 -34 -14 -20 -28 33 -30 29 -2 30 -3 9 -6 -20 -3 -26 -9 -22 -22 2 -9 -3 -23 -11 -31 -14 -11 -20 -10 -36 5 -11 10 -20 24 -20 32 0 18 -100 18 -124 0 -17 -12 -17 -15 -2 -29 9 -9 24 -14 36 -11 37 10 21 -22 -17 -34 -45 -14 -49 -12 -68 34 -15 36 -9 52 18 53 21 0 -7 20 -29 20 -14 0 -23 -4 -19 -9 3 -5 0 -13 -6 -17 -15 -9 -144 -26 -221 -29 -66 -2 -88 -16 -88 -55 0 -45 21 -54 103 -46 81 9 80 9 161 1 34 -3 67 -12 78 -21 18 -17 20 -17 83 30 8 6 32 -1 68 -18 65 -30 75 -31 104 -11 25 18 42 3 23 -20 -17 -20 -8 -59 14 -63 10 -2 31 5 47 17 15 12 36 21 46 21 26 0 88 23 108 40 15 12 19 11 36 -10 22 -30 23 -34 5 -49 -10 -9 -16 -8 -26 4 -23 28 -57 14 -44 -19 8 -20 75 -22 105 -3 17 10 22 9 38 -12 25 -32 48 -22 68 29 17 43 23 46 54 29 13 -6 19 -18 17 -32 -3 -19 1 -22 27 -18 16 1 38 9 49 17 27 19 33 18 39 -6 6 -24 43 -27 72 -6 27 18 146 16 170 -4 12 -10 39 -15 81 -14 44 0 65 -4 68 -13 9 -22 54 -16 61 8 l7 21 15 -21 c12 -18 21 -20 68 -16 52 5 55 4 70 -25 20 -38 34 -38 42 1 6 31 34 52 41 31 5 -17 32 -15 38 3 4 8 15 15 25 15 14 0 19 -7 19 -25 0 -22 3 -24 25 -15 15 6 26 6 30 0 10 -16 45 -11 52 8 15 39 55 43 71 7 13 -27 43 -33 61 -11 6 7 30 16 52 20 36 6 44 3 64 -18 17 -19 33 -25 62 -24 22 0 53 -3 70 -6 23 -5 32 -3 36 8 6 16 57 22 70 10 3 -4 2 -15 -4 -26 -13 -23 4 -48 32 -48 15 0 28 13 55 58 1 1 14 -3 28 -10 21 -9 32 -9 47 0 25 16 44 15 59 -3 14 -17 85 -20 95 -4 4 5 0 18 -9 28 -21 23 -20 31 3 31 14 0 21 -8 23 -27 2 -19 10 -29 23 -31 11 -2 30 -8 43 -14 32 -16 52 4 34 33 -15 24 -8 39 20 39 12 0 29 7 39 16 10 9 26 14 35 10 13 -5 15 -14 10 -46 -5 -34 -4 -40 12 -40 10 0 23 5 28 10 7 7 37 5 93 -4 74 -13 86 -13 107 0 12 9 49 16 82 18 33 1 67 8 75 15 14 11 23 9 56 -10 37 -20 41 -21 56 -5 9 9 20 16 25 16 21 0 38 -13 35 -28 -1 -9 0 -11 2 -4 3 6 5 12 6 13 1 0 38 6 82 13 80 13 113 10 152 -15 18 -11 24 -11 37 0 9 8 16 20 16 28 0 10 5 13 18 8 51 -21 78 -25 105 -14 21 9 31 9 42 -1 11 -9 40 -11 105 -7 60 4 90 2 90 -5 0 -6 12 -8 33 -4 36 8 78 8 185 1 64 -4 76 -8 93 -30 28 -35 63 -32 99 7 l29 31 58 -12 c32 -7 69 -15 82 -17 14 -3 31 2 43 12 16 15 24 16 51 6 43 -15 156 -9 187 10 18 12 38 14 70 9 40 -5 47 -10 63 -43 19 -41 28 -46 47 -23 9 11 17 12 31 4 11 -5 29 -7 39 -4 11 4 30 -1 42 -9 12 -9 32 -16 43 -16 12 0 26 -5 33 -12 9 -9 18 -9 38 1 22 10 31 9 50 -4 17 -11 43 -15 87 -13 59 3 62 2 60 -19 -3 -28 13 -30 20 -3 3 10 17 22 33 26 22 6 31 3 42 -14 18 -28 40 -28 69 -1 28 27 117 43 154 29 17 -8 34 -8 53 0 19 7 33 7 47 -1 16 -8 25 -7 38 5 21 19 160 23 177 6 19 -19 91 -16 114 5 21 19 21 19 26 -2 3 -12 11 -24 17 -26 20 -8 55 11 62 32 9 28 27 26 53 -4 27 -31 31 -31 92 0 65 33 193 46 203 21 10 -26 32 -19 44 15 11 30 15 31 49 26 31 -5 40 -2 55 17 17 21 23 22 101 18 53 -3 96 -11 120 -23 56 -29 106 -23 145 17 10 9 20 10 43 1 22 -9 38 -8 64 1 27 10 41 10 56 2 30 -16 50 -6 50 25 0 32 20 32 49 1 19 -20 32 -24 79 -24 32 0 67 4 79 9 15 5 32 3 49 -6 16 -8 40 -11 56 -8 21 4 32 1 42 -13 17 -22 82 -21 108 3 12 11 26 13 50 8 56 -12 132 -11 155 2 19 11 23 10 28 -6 7 -25 34 -35 51 -20 8 6 23 9 34 6 13 -3 25 1 32 12 9 15 21 17 77 13 58 -4 68 -2 85 17 24 26 42 27 49 1 3 -12 14 -20 25 -20 12 0 24 -5 27 -10 5 -8 11 -7 21 1 15 13 80 4 102 -13 9 -8 20 -8 38 1 14 6 37 11 51 11 15 0 37 10 50 22 21 20 24 20 41 5 14 -13 37 -17 91 -17 40 0 81 -4 91 -10 13 -7 24 -5 43 10 20 16 34 18 76 13 45 -5 55 -3 72 16 26 28 31 27 57 -9 29 -39 90 -43 126 -7 20 20 33 23 107 24 46 1 96 6 111 12 20 7 29 7 37 -3 11 -14 137 -16 159 -2 7 4 21 4 33 1 11 -4 27 -1 35 6 9 8 37 10 83 7 46 -4 76 -1 92 8 15 9 41 11 70 8 30 -4 55 -2 70 7 14 8 53 14 89 14 63 0 65 -1 65 -25 0 -33 19 -38 23 -5 4 29 7 30 79 9 40 -12 58 -13 66 -5 6 6 27 11 46 11 20 0 45 7 55 15 22 17 38 11 29 -10 -7 -20 26 -19 51 0 22 17 66 20 66 5 0 -5 -4 -10 -10 -10 -15 0 -12 -36 5 -50 20 -17 42 -6 63 30 24 43 51 49 77 17 15 -20 30 -27 60 -27 22 -1 56 -2 75 -2 19 -1 38 -5 41 -10 6 -10 94 34 125 63 20 19 24 19 57 6 19 -8 37 -19 41 -25 3 -5 31 -20 62 -32 53 -22 58 -22 69 -7 14 20 38 22 65 5 15 -10 22 -9 38 5 24 22 39 22 51 -1 13 -24 83 -18 107 9 22 24 36 24 59 -1 10 -11 26 -20 35 -20 10 0 23 -7 30 -15 17 -21 27 -19 57 11 23 23 28 24 50 13 19 -10 25 -10 36 3 19 25 39 26 85 6 49 -20 102 -24 119 -7 9 9 20 5 43 -15 17 -14 39 -26 48 -26 9 0 27 -3 40 -6 18 -5 22 -2 22 15 0 22 14 28 26 10 3 -6 1 -16 -5 -22 -6 -6 -11 -17 -11 -25 0 -12 13 -13 71 -8 88 9 118 -5 111 -53 -4 -32 -8 -30 73 -46 17 -3 51 -7 77 -9 40 -3 51 0 65 19 10 12 33 25 51 29 29 5 35 2 55 -29 15 -24 33 -37 62 -44 63 -16 120 -19 139 -9 12 7 30 5 58 -7 22 -9 53 -13 67 -10 21 4 28 1 36 -17 7 -16 17 -22 34 -20 12 1 39 -5 58 -15 32 -15 36 -15 44 0 11 18 91 51 111 45 7 -3 13 -15 13 -28 0 -34 21 -36 39 -3 15 29 15 30 31 -22 2 -8 12 -15 20 -15 9 0 23 -6 31 -14 14 -14 108 -15 122 -2 3 4 16 -4 29 -16 27 -25 34 -21 49 32 16 53 4 70 -35 47 -32 -19 -35 -17 -45 25 -4 16 -23 38 -48 55 -49 33 -63 59 -27 50 31 -8 54 6 46 27 -5 14 -11 15 -27 6 -14 -7 -26 -8 -33 -2 -7 5 -31 13 -55 17 -23 4 -49 13 -56 21 -8 8 -22 14 -30 14 -9 0 -22 15 -30 33 -7 18 -33 50 -57 71 -24 20 -46 47 -49 59 -4 16 -15 23 -39 25 -45 5 -64 -14 -58 -56 7 -40 -10 -51 -46 -28 -13 9 -39 16 -58 16 -116 -1 -143 1 -155 11 -10 9 -16 5 -25 -14 -13 -29 -72 -46 -95 -26 -7 6 -21 9 -30 5 -8 -3 -24 -1 -35 5 -16 8 -18 17 -13 44 5 26 1 38 -17 56 -29 29 -43 98 -20 100 18 1 -54 18 -81 18 -10 1 -18 -6 -18 -14 0 -8 -7 -15 -16 -15 -8 0 -12 5 -9 10 4 6 -6 10 -22 10 -15 0 -46 3 -68 6 -32 4 -37 3 -25 -6 12 -9 8 -11 -19 -6 -18 3 -45 7 -60 7 -26 1 -25 2 4 9 24 7 18 9 -35 10 -232 7 -11751 7 -11735 0z"/>
 </g>

</svg>